<svg width="92.353" height="120" fill="#000000" version="1.1" viewBox="0 0 6.7188 8.7302" xml:space="preserve" xmlns="http://www.w3.org/2000/svg">
<path d="m5.8707 4.7942h0.42379l-0.82488 1.7432q0.030832 0.27984 0.030832 0.48919 0 0.58247-0.216 0.58247-0.15634 0-0.15634-0.24461 0-0.3192 0.23039-0.80011-0.045238-0.29851-0.12753-0.71924-0.080226-0.42079-0.16662-0.60319-0.084338-0.18242-0.24276-0.18242-0.2592 0-0.2777 0.38971h-0.074055q0-0.684 0.40317-0.684 0.23245 0 0.34559 0.27778 0.11315 0.27568 0.23245 1.2023z" fill="#f00" filter="url(#editing-jagged-67)" stroke-width=".011145"/><g fill="#2b3748" stroke-width=".13437"><path d="m3.3786 5.8292c0.065844-0.5332 0.31551-1.0094 0.68424-1.3639-0.11476 0.0065844-0.23233 0.011556-0.35313 0.014916-0.11691 0.00363-0.23381 0.00551-0.35018 0.00551-0.11677 0-0.23408-0.00189-0.35126-0.00565-0.98645-0.027003-1.7726-0.16635-2.3385-0.36509-0.26606-0.089628-0.49383-0.19525-0.66973-0.31605v1.2631c0.38243 0.39923 1.6654 0.76741 3.3593 0.76741 0.00659 0 0.012766-2.688e-4 0.019216-2.688e-4z"/><path d="m3.0417 4.0629c0.043807 0.00121 0.087479 0.00242 0.13196 0.00309 0.061275 0.00108 0.12322 0.00161 0.18571 0.00161 0.062484 0 0.12443-5.375e-4 0.18584-0.00148 0.044344-6.718e-4 0.08815-0.00201 0.13196-0.00309 0.015587-4.031e-4 0.031443-6.719e-4 0.046897-0.00107 1.5121-0.048243 2.6402-0.39171 2.9947-0.76164v-1.2633c-0.654 0.44922-2.0366 0.68679-3.3593 0.68679s-2.7053-0.23757-3.3593-0.68679v1.2631c0.35448 0.37007 1.4826 0.71353 2.9947 0.76164 0.015587 4.031e-4 0.031443 6.718e-4 0.047032 0.00107z"/><path d="m3.3663 6.2445h-0.00685c-1.659 0-2.8039-0.30772-3.3593-0.69889v1.1021c0 0.021769 0.0057781 0.042328 0.015722 0.060603 0.1587 0.65776 1.5785 1.1488 3.3437 1.1488 0.26875 0 0.52809-0.012631 0.77763-0.034266-0.44384-0.39103-0.73395-0.95043-0.77078-1.5783z"/></g>
</svg>
