<svg width="94.502" height="110" fill="#000000" version="1.1" viewBox="0 0 6.8751 8.0026" xml:space="preserve" xmlns="http://www.w3.org/2000/svg">
<path d="m6.0073 4.8686h0.43365l-0.84407 1.7838q0.031549 0.28635 0.031549 0.50057 0 0.59602-0.22103 0.59602-0.15998 0-0.15998-0.2503 0-0.32663 0.23575-0.81873-0.04629-0.30546-0.1305-0.73598-0.082093-0.43058-0.1705-0.61723-0.0863-0.18666-0.24841-0.18666-0.26523 0-0.28416 0.39878h-0.075778q0-0.69992 0.41255-0.69992 0.23786 0 0.35363 0.28424 0.11578 0.2821 0.23786 1.2303z" fill="#ff7f2a" filter="url(#editing-jagged-67)" stroke-width=".011404"/><g stroke-width=".1375"><path d="m3.4572 5.9276c0.067376-0.54561 0.32285-1.0329 0.70016-1.3956-0.11743 0.0067376-0.23774 0.011825-0.36135 0.015263-0.11963 0.00371-0.23925 0.00564-0.35833 0.00564-0.11949 0-0.23953-0.00193-0.35943-0.00578-1.0094-0.027635-1.8138-0.17022-2.3929-0.37359-0.27225-0.091714-0.50532-0.19979-0.68531-0.3234v1.2925c0.39133 0.40852 1.7042 0.78527 3.4375 0.78527 0.00674 0 0.013063-2.751e-4 0.019663-2.751e-4z" fill="#4a0"/><path d="m3.1125 4.1202c0.044826 0.00124 0.089514 0.00248 0.13503 0.00316 0.062701 0.0011 0.12609 0.00165 0.19003 0.00165 0.063938 0 0.12733-5.5e-4 0.19016-0.00151 0.045376-6.875e-4 0.090201-0.00206 0.13503-0.00316 0.01595-4.125e-4 0.032175-6.875e-4 0.047988-0.0011 1.5473-0.049366 2.7016-0.40082 3.0644-0.77936v-1.2927c-0.66922 0.45967-2.084 0.70277-3.4375 0.70277s-2.7683-0.2431-3.4375-0.70277v1.2925c0.36273 0.37868 1.5171 0.73013 3.0644 0.77936 0.01595 4.125e-4 0.032175 6.875e-4 0.048126 0.0011z" fill="#55d400"/><path d="m6.8751 1.5546v-0.31708c0-0.0231-0.0077-0.043863-0.018563-0.062976-0.15428-0.59139-1.3406-1.1745-3.419-1.1745-2.0731 0-3.2582 0.58026-3.4173 1.1701-0.011688 0.020213-0.020213 0.042351-0.020213 0.067376v0.31708c0.39009 0.40714 1.6936 0.78293 3.4375 0.78293s3.0476-0.37579 3.4375-0.78293z" fill="#6f0"/><path d="m3.4446 6.3526h-0.0070126c-1.6976 0-2.8691-0.31488-3.4375-0.71515v1.1277c0 0.022275 0.0059126 0.043313 0.016088 0.062013 0.16239 0.67307 1.6152 1.1755 3.4215 1.1755 0.275 0 0.54038-0.012925 0.79572-0.035063-0.45417-0.40013-0.75103-0.97255-0.78871-1.615z" fill="#338000"/></g>
</svg>
