<?xml version="1.0" encoding="UTF-8" standalone="no"?>
<svg
   width="334.47134"
   height="111.07935"
   version="1.1"
   viewBox="0 0 359.5567 119.41029"
   id="svg23"
   xmlns="http://www.w3.org/2000/svg"
   xmlns:svg="http://www.w3.org/2000/svg">
  <defs
     id="defs7">
    <filter
       id="editing-jagged"
       x="0"
       y="0"
       width="1"
       height="1">
      <feTurbulence
         baseFrequency="0"
         result="turb"
         seed="1"
         id="feTurbulence2" />
      <feDisplacementMap
         in="SourceGraphic"
         in2="turb"
         id="feDisplacementMap4"
         scale="0"
         xChannelSelector="A"
         yChannelSelector="A" />
    </filter>
  </defs>
  <g
     id="g1577"
     transform="translate(-126.17446,-7.2524865)">
    <g
       id="g970"
       transform="translate(36)"
       style="stroke:none" />
  </g>
  <g
     id="g6"
     transform="matrix(1.31999,0,0,1.3233319,-150.99554,-25.456323)">
    <g
       id="g8">
      <g
         id="g10">
        <rect
           x="130.2803"
           y="52.772423"
           width="263.54163"
           height="44.08316"
           rx="14.483612"
           ry="22.04158"
           stroke-width="0.79031"
           id="rect9"
           style="fill:none;stroke:none;stroke-width:1.31171;stroke-dasharray:none" />
        <g
           id="g1">
          <g
             id="g9">
            <circle
               style="fill:#000000;stroke:none;stroke-width:1.49577;stroke-linejoin:round;stroke-dasharray:none"
               id="path1024"
               cx="158.18759"
               cy="73.719002"
               r="35.752113" />
            <g
               id="g1079"
               transform="translate(84.6976)">
              <path
                 d="m 68.471019,102.35988 c 0.522317,-0.54189 1.196365,-1.57467 1.73203,-2.653733 l 0.876865,-1.766556 0.01234,-2.913752 c 0.0115,-2.710568 0.04472,-2.989476 0.477091,-4.00003 1.059416,-2.476345 1.475805,-3.316716 2.190302,-4.420972 0.650498,-1.005317 0.760932,-1.322695 0.819051,-2.353734 0.171161,-3.036439 -1.989392,-8.419634 -4.442747,-11.06988 -1.761394,-1.902518 -3.475062,-2.831356 -4.808608,-2.606392 -0.375685,0.06338 -1.557065,0.64615 -2.625284,1.295002 -1.068217,0.648882 -3.166182,1.772016 -4.662172,2.495919 -4.076129,1.972396 -4.663007,2.820279 -4.907469,7.089581 -0.156519,2.733402 -0.385534,2.41519 -0.409351,-0.568905 -0.0204,-2.555254 0.540369,-4.657012 1.602894,-6.007856 0.202666,-0.257657 0.368486,-0.530094 0.368486,-0.605437 0,-0.162013 -0.972466,-0.569747 -3.050553,-1.278993 l -1.511543,-0.515905 -0.713859,0.364182 c -1.021631,0.52118 -1.892502,1.458128 -3.279158,3.527796 -0.668062,0.997122 -1.501452,2.090909 -1.851909,2.430592 l -0.637259,0.617652 -0.01805,2.091896 c -0.01,1.150539 -0.08329,2.295541 -0.163006,2.544479 -0.142367,0.44454 -0.145336,0.442917 -0.165078,-0.09051 -0.01108,-0.298747 -0.263602,-1.350849 -0.561207,-2.337958 -0.297606,-0.987109 -0.541096,-1.940605 -0.541096,-2.118906 0,-0.553842 0.371619,-1.173983 0.885363,-1.477476 0.739845,-0.437037 1.468294,-1.225654 1.468294,-1.589542 0,-0.499797 -1.233239,-0.669284 -3.388338,-0.465647 -1.382333,0.130617 -2.03833,0.118123 -2.597666,-0.04946 -0.411575,-0.123311 -0.701759,-0.270752 -0.64486,-0.32765 0.05689,-0.05689 1.100842,-0.255548 2.319895,-0.441445 4.496692,-0.68571 6.588436,-1.517462 7.742846,-3.078624 l 0.392999,-0.531561 -1.401527,-1.485746 c -1.962305,-2.080132 -3.714747,-4.496614 -6.859152,-9.458333 -1.784839,-2.816256 -2.859506,-4.341001 -3.135,-4.448058 -0.882555,-0.343015 -2.504494,-0.173629 -4.585693,0.478896 -1.12588,0.352991 -2.25214,0.61778 -2.502899,0.588426 -0.390808,-0.04574 -0.269569,-0.16567 0.849246,-0.839915 2.28067,-1.374441 4.77932,-1.850543 6.324322,-1.205016 0.357492,0.149364 0.683588,0.27158 0.724643,0.27158 0.04106,0 0.02326,-0.38743 -0.03956,-0.860931 -0.144993,-1.093103 0.176405,-3.883563 0.755847,-6.562262 0.573304,-2.650397 0.586575,-2.689852 0.792116,-2.3573 0.415638,0.672525 0.386148,1.995537 -0.09717,4.358907 -0.77019,3.765959 -0.543889,5.047152 1.587491,8.988683 1.504032,2.78143 1.736733,2.820808 1.490374,0.251957 -0.08209,-0.855696 -0.154378,-2.085445 -0.160682,-2.73272 -0.01388,-1.433924 0.344166,-2.002517 1.836658,-2.916105 0.552067,-0.337938 1.520571,-0.951752 2.152215,-1.364046 1.081268,-0.705793 1.133696,-0.72168 0.895758,-0.271579 -0.138974,0.26293 -0.875726,1.089158 -1.637189,1.835976 -0.761463,0.746848 -1.500694,1.577932 -1.642804,1.846826 -0.524806,0.993331 -0.07708,4.930385 0.781417,6.871065 0.301064,0.680611 3.919679,5.404361 4.139937,5.404361 0.180654,0 -0.530898,-1.408886 -0.977851,-1.936203 -0.269599,-0.318054 -0.8038,-0.947428 -1.187187,-1.398568 -0.764042,-0.899172 -0.943254,-1.472621 -1.130584,-3.617174 -0.08437,-0.965787 -0.06432,-1.39227 0.0618,-1.314347 0.10267,0.06345 0.238575,0.322072 0.301974,0.5747 0.262043,1.044089 1.185289,2.644934 2.964513,5.14002 1.036199,1.453121 2.077556,3.022024 2.314127,3.486367 0.343524,0.674255 0.624795,0.939536 1.396596,1.31708 2.054795,1.00532 3.74411,0.822464 7.733741,-0.837259 1.443942,-0.600611 3.012313,-1.208506 3.485305,-1.35092 0.473008,-0.142381 0.860023,-0.299174 0.860023,-0.348407 0,-0.04923 -0.192566,-0.473828 -0.427918,-0.943559 -0.235341,-0.469701 -0.532337,-1.17991 -0.659979,-1.578245 -0.405291,-1.264803 -1.255471,-2.868986 -1.840225,-3.472255 -0.311065,-0.320934 -1.103423,-0.805999 -1.760863,-1.077852 -1.474364,-0.609763 -1.919815,-0.992572 -2.500547,-2.148878 -0.250077,-0.4979 -0.622851,-1.088625 -0.828383,-1.31268 l -0.373698,-0.407369 h 0.44391 c 0.590127,0 1.071405,0.358387 1.700696,1.266398 0.509001,0.734496 1.260252,1.268369 1.784837,1.268369 0.199136,0 0.13969,-0.231246 -0.244408,-0.950537 -0.279163,-0.522796 -0.882931,-1.99387 -1.341659,-3.269066 -0.458772,-1.275196 -1.016931,-2.69554 -1.240301,-3.156318 -0.378622,-0.780961 -0.479852,-0.857821 -1.492499,-1.13339 -1.459114,-0.396992 -1.974141,-0.692524 -3.291905,-1.889013 l -1.11928,-1.016244 -1.77763,-0.10821 c -1.128004,-0.06868 -2.069057,-0.233408 -2.575055,-0.450792 -0.438608,-0.188416 -0.764496,-0.372513 -0.724223,-0.409107 0.04029,-0.0366 1.2796,-0.162369 2.753965,-0.279494 l 2.68067,-0.212953 1.102663,1.020872 c 1.562302,1.446443 2.303128,1.890226 3.365349,2.016022 0.90069,0.106681 0.928081,0.09609 1.069658,-0.412521 0.0799,-0.287097 0.142536,-1.255244 0.139171,-2.151456 -0.0056,-1.476869 -0.06271,-1.743335 -0.610034,-2.845013 l -0.603921,-1.215562 0.404048,-1.500314 c 0.433319,-1.608964 0.987411,-2.858214 1.267839,-2.858214 0.186093,0 0.109808,0.578212 -0.290124,2.198801 -0.456567,1.850089 -0.338303,2.482035 0.765028,4.087889 0.446817,0.650308 0.463015,0.755204 0.329372,2.132413 -0.252672,2.603811 -0.222527,2.866863 0.411066,3.588493 0.483289,0.550429 0.59231,0.850915 0.698017,1.923684 0.06889,0.699239 0.222838,1.404791 0.34208,1.567841 0.184677,0.252551 0.268477,0.138919 0.565331,-0.76647 0.273469,-0.834072 0.343279,-1.530814 0.32416,-3.235606 -0.02415,-2.153657 -0.09865,-2.632871 -1.252815,-8.05696 -0.664543,-3.123011 -0.670065,-5.396395 -0.01935,-7.966671 0.264737,-1.045608 0.481445,-2.181049 0.481574,-2.523312 1.35e-4,-0.361193 -0.350115,-1.371709 -0.834907,-2.408742 -0.459319,-0.982632 -0.795605,-1.826036 -0.747342,-1.874369 0.158607,-0.158604 1.726036,1.726113 2.130591,2.561932 0.327356,0.676233 0.384017,1.055544 0.326839,2.187874 -0.06462,1.279903 -0.05108,1.341891 0.206337,0.943709 0.346384,-0.535708 1.420571,-1.734457 3.626733,-4.047219 2.917774,-3.058748 3.946082,-5.036379 4.118921,-7.92115 0.05221,-0.871324 0.155601,-1.584229 0.22975,-1.584229 0.267211,0 0.353213,0.861387 0.35564,3.561939 0.0028,3.133253 0.225123,2.595312 -2.1944,5.309747 -2.312384,2.5941 -4.681975,5.708007 -5.359598,7.043069 -0.667782,1.315638 -0.681399,1.383089 -0.676529,3.350934 0.0052,2.118223 0.149401,2.82741 1.448038,7.124328 0.917303,3.035151 1.079142,4.597376 0.717151,6.924101 -0.551718,3.546609 -0.551672,3.955035 5.4e-4,5.25952 0.271938,0.642357 0.773828,1.901226 1.115334,2.79744 1.289615,3.384698 1.386733,3.507232 3.437429,4.337359 0.683631,0.27674 1.830362,0.781569 2.548348,1.121859 1.205245,0.571226 1.349554,0.701575 1.881046,1.698723 0.372324,0.698548 0.689351,1.080052 0.897577,1.080052 0.394874,0 3.856629,-4.504204 4.907471,-6.385248 0.402353,-0.720257 1.15107,-1.956311 1.66382,-2.746834 0.882706,-1.360859 0.93559,-1.510102 0.994393,-2.806317 0.07209,-1.586809 -0.185981,-2.76451 -1.281877,-5.850116 l -0.755526,-2.127405 h -4.452232 l -0.683298,0.683297 c -1.22421,1.224214 -1.496595,2.961859 -1.037335,6.618485 0.1723,1.371936 0.274872,2.532794 0.227937,2.579759 -0.140281,0.140283 -1.942579,-2.715496 -2.133172,-3.38007 -0.177254,-0.618053 -0.227406,-2.263216 -0.05603,-1.838175 0.05044,0.125092 0.166215,0.181397 0.257294,0.125106 0.20573,-0.127154 0.221275,-1.710483 0.01678,-1.710483 -0.08183,0 -0.534366,0.131388 -1.005621,0.291954 -0.471247,0.16057 -0.897124,0.251624 -0.94644,0.202345 -0.04927,-0.04928 0.545822,-0.535003 1.322466,-1.07937 1.54986,-1.086427 2.625588,-2.177708 3.074528,-3.119141 l 0.291081,-0.610401 1.950772,-0.06059 c 1.072921,-0.03332 2.007069,-0.117071 2.075811,-0.186132 0.06879,-0.06905 -0.148688,-0.828762 -0.483281,-1.688251 -0.701249,-1.801304 -0.693412,-1.79584 -3.637886,-2.542204 -0.97823,-0.247976 -2.228012,-0.618981 -2.777182,-0.824436 l -0.998482,-0.3736 -1.576414,0.89538 c -0.867002,0.492469 -1.780058,0.952889 -2.028997,1.02307 l -0.452636,0.127715 0.378879,-0.328197 c 1.639921,-1.420494 3.236063,-2.59114 3.776051,-2.769366 0.895151,-0.295418 1.538022,-0.117057 3.672485,1.018899 2.101304,1.118293 3.405713,1.415184 3.852453,0.876866 0.44706,-0.538676 0.318212,-1.559799 -0.32287,-2.558895 -0.321367,-0.500814 -0.584305,-0.962526 -0.584305,-1.026032 0,-0.172854 0.792646,0.162057 1.620724,0.68477 l 0.733025,0.462735 V 42.7472 c 0,2.967319 0.300555,4.164976 1.972623,7.86045 0.703678,1.55532 1.443941,3.421495 1.645004,4.147068 0.389229,1.404562 0.470853,3.370056 0.190222,4.580457 -0.09168,0.395527 -0.13746,0.748389 -0.101704,0.784149 0.140723,0.140721 0.906683,-0.407134 2.09918,-1.501529 0.770188,-0.706781 1.372012,-1.12201 1.56936,-1.082784 0.176063,0.03506 0.915485,0.200661 1.643108,0.368061 0.76275,0.175472 1.705549,0.267596 2.226419,0.21755 1.056909,-0.101535 1.503499,-0.464258 2.988869,-2.427483 0.5382,-0.711325 1.52785,-1.744017 2.19918,-2.294857 2.73333,-2.242654 2.89766,-2.575435 3.13219,-6.343745 0.0938,-1.508054 0.2135,-2.998428 0.2659,-3.311936 0.14429,-0.863587 0.70833,-1.4469 2.180201,-2.254718 1.54561,-0.848262 2.1906,-1.528237 2.34895,-2.476346 0.20234,-1.211161 0.63248,-2.574677 0.81223,-2.574677 0.25941,0 0.20993,1.757448 -0.0801,2.847061 -0.33677,1.264956 -0.85251,2.072017 -2.26944,3.551314 l -1.18605,1.238249 0.0132,1.158734 c 0.008,0.637319 0.0664,1.211996 0.13142,1.277018 0.2017,0.201693 0.58542,-0.244955 1.12262,-1.306686 l 0.51584,-1.019582 0.73798,0.109163 c 0.40589,0.06004 1.64303,0.162194 2.74918,0.226998 l 2.01124,0.117828 0.79507,-0.549321 c 0.43732,-0.302127 1.81352,-1.459191 3.05829,-2.571186 3.06125,-2.734845 5.18806,-3.760421 7.45909,-3.596763 l 0.7789,0.05615 -0.46646,0.317073 c -0.25655,0.174386 -1.23104,0.480466 -2.16555,0.680172 -0.99205,0.212004 -1.97908,0.548365 -2.37187,0.808275 -0.37001,0.244858 -1.44903,1.331876 -2.39789,2.415496 -0.94888,1.083694 -1.91216,2.096524 -2.14069,2.25085 l -0.41552,0.28051 0.48397,0.516474 c 0.2662,0.284063 1.0699,1.453425 1.7859,2.598577 1.65039,2.639398 2.36072,3.509888 3.30883,4.054962 1.86276,1.070947 2.93938,0.812145 4.8772,-1.172392 0.77178,-0.79037 1.40319,-1.386656 1.40319,-1.325123 0,0.06153 -0.25483,0.589953 -0.56626,1.174287 -0.67561,1.267535 -1.62383,2.287877 -2.4451,2.631051 -1.3016,0.54385 -4.57225,0.119961 -5.47476,-0.709558 -0.23845,-0.219142 -0.95123,-1.467536 -1.58401,-2.774144 -0.83226,-1.718602 -1.3516,-2.557454 -1.87763,-3.032648 l -0.72716,-0.656946 h -2.60996 c -1.43552,0 -2.72248,-0.04317 -2.85996,-0.09594 -0.1558,-0.05979 -0.39547,0.16193 -0.63607,0.588426 -0.21233,0.3764 -1.21049,1.815946 -2.21816,3.19896 -2.070781,2.842283 -2.538091,3.661179 -2.538091,4.448286 0,0.794619 1.04909,1.865113 2.576861,2.629382 1.10639,0.553502 1.44334,0.636476 2.56224,0.630952 0.70857,-0.0036 1.81716,-0.119707 2.46345,-0.258227 0.64632,-0.138526 1.17914,-0.237503 1.18408,-0.219955 0.006,0.01756 0.46033,0.602227 1.01199,1.29925 1.93779,2.448424 2.43295,3.5457 2.29281,5.080916 l -0.065,0.712873 -0.223,-0.518911 c -0.12266,-0.285404 -0.47806,-1.131571 -0.78977,-1.880438 -0.31173,-0.748837 -0.81108,-1.639768 -1.10972,-1.979831 -1.05433,-1.200843 -1.82679,-1.347659 -4.65337,-0.88453 -0.84644,0.138694 -1.74849,0.212021 -2.00464,0.162946 -0.42074,-0.0806 -0.51923,0.02143 -1.02042,1.057291 -0.48171,0.995682 -0.674301,1.637797 -1.057731,3.52658 -0.0471,0.231869 -0.3895,0.548533 -0.84963,0.785741 -0.98317,0.506757 -1.59204,1.076335 -2.69303,2.519214 -0.48626,0.637227 -0.88408,1.087033 -0.88408,0.999627 0,-0.08743 0.21292,-0.716157 0.47316,-1.397202 0.36281,-0.949476 0.58442,-1.28051 0.95023,-1.419585 1.19606,-0.454754 1.70055,-1.423303 2.31109,-4.437133 l 0.46092,-2.275206 -0.51347,-0.536384 c -0.28242,-0.295025 -0.94007,-0.780581 -1.46139,-1.078991 -0.94348,-0.540079 -0.95054,-0.54108 -1.50517,-0.213992 -0.30652,0.180752 -1.09318,1.004635 -1.74819,1.830892 -0.65499,0.826259 -1.44417,1.6381 -1.75381,1.80411 -0.42554,0.228205 -1.25456,0.327871 -3.396988,0.408409 -3.27013,0.122947 -3.458523,0.199145 -5.356183,2.167391 -1.450618,1.504563 -2.256996,2.926121 -3.060719,5.396016 -0.578973,1.779148 -0.689824,2.367316 -0.689565,3.658903 3.58e-4,1.464729 0.05079,1.659799 1.04682,4.042441 0.57559,1.376944 1.094166,2.905863 1.152437,3.397748 0.08811,0.744056 0.177322,0.912221 0.531019,1.000993 0.405981,0.1019 1.201527,0.895984 1.622016,1.618979 0.1794,0.308507 0.456792,0.339578 3.077942,0.34479 1.83021,0.0038 3.157533,-0.07831 3.639711,-0.224735 0.41741,-0.126761 1.43582,-0.765409 2.26321,-1.419131 2.16633,-1.711923 2.21936,-1.73165 4.9335,-1.834459 2.204491,-0.08356 2.438021,-0.127771 3.450851,-0.65322 1.39075,-0.721538 3.83052,-3.146608 5.20861,-5.177124 1.00471,-1.480359 1.03763,-1.50919 1.03346,-0.905241 -0.006,0.826332 -0.69731,2.474448 -1.40812,3.355486 -0.31432,0.3896 -1.22149,1.237945 -2.01595,1.885217 -1.66943,1.360176 -1.83067,1.167914 1.52733,1.821335 2.26192,0.440107 2.23263,0.428523 2.43673,0.965332 0.0831,0.218772 0.64736,1.203272 1.25372,2.187723 0.60639,0.984453 1.06989,1.822624 1.02999,1.862532 -0.17498,0.174964 -0.82808,-0.376345 -1.5419,-1.301602 -1.10009,-1.425883 -2.04348,-2.222321 -2.94197,-2.483401 -1.2026,-0.34954 -6.453541,-0.296231 -7.978051,0.08101 -1.7057,0.421984 -3.4894,1.357673 -3.17931,1.667766 0.038,0.038 0.80585,0.142991 1.70639,0.233311 l 1.63727,0.164225 0.83209,0.889612 c 0.45766,0.489268 1.407301,1.376946 2.110401,1.97255 0.94962,0.804557 1.27892,1.199324 1.28089,1.535594 9.4e-4,0.248954 0.21659,1.569813 0.47815,2.9353 0.60193,3.142358 0.46437,3.677032 -0.40786,1.585368 -0.35166,-0.843329 -0.77627,-1.921105 -0.94356,-2.395161 -0.25077,-0.710579 -0.7092,-1.239535 -2.611461,-3.013297 l -2.30738,-2.151456 -0.67754,0.16042 c -0.37265,0.08824 -2.26633,0.368172 -4.20815,0.622098 -4.165048,0.544655 -5.859446,0.875044 -7.004598,1.365943 -1.000007,0.428658 -1.096669,0.545791 -2.043717,2.476041 -0.794543,1.61951 -1.264879,3.301086 -1.269128,4.537132 -0.0032,0.961234 -0.161906,1.273836 -1.370496,2.7007 -1.217003,1.436886 -1.430283,2.056468 -1.177931,3.421813 0.242993,1.314425 0.243532,2.680135 0.0014,3.551995 l -0.18856,0.67896 H 67.615634 l 0.855088,-0.88717 z"
                 fill="#9955ff"
                 stroke="#000"
                 stroke-width="1.139"
                 id="path21"
                 style="fill:#b380ff;stroke:none;stroke-width:0;stroke-dasharray:none" />
            </g>
          </g>
          <g
             id="g202"
             transform="matrix(0.75818718,0,0,0.75818719,130.84622,17.759152)"
             style="fill:#ffffff;stroke:#000000;stroke-width:2.1799;stroke-dasharray:none">
            <g
               id="g5"
               transform="translate(-4.2965648)"
               style="fill:#ffffff">
              <path
                 d="m 265.995,52.203593 q 23.9357,0 23.9357,22.812093 0,22.812094 -23.9357,22.812094 H 246.22776 V 52.203593 Z m -5.10901,10.942658 V 86.88606 h 4.83885 q 9.22325,0 9.22325,-9.88033 v -3.979148 q 0,-9.880331 -9.22325,-9.880331 z m 67.31424,-10.942658 q 3.45105,0 6.33103,1.424622 2.88611,1.424624 4.58092,4.009864 1.68869,2.585225 1.68869,5.77221 0,8.418865 -7.6267,10.611062 v 0.264055 q 8.68902,1.989575 8.68902,11.409339 0,3.580011 -1.75623,6.331033 -1.76235,2.751023 -4.80813,4.28003 -3.05191,1.52288 -6.69946,1.52288 H 297.82804 V 52.204501 Z m -15.71944,10.009302 v 7.761783 h 10.08294 q 1.46148,0 2.41943,-1.025485 0.96408,-1.03163 0.96408,-2.554511 v -0.663191 q 0,-1.461467 -0.99479,-2.486968 -0.99479,-1.031628 -2.38871,-1.031628 z m 0,17.181546 v 7.823215 h 11.14527 q 1.45532,0 2.41943,-1.025487 0.96408,-1.031629 0.96408,-2.55451 v -0.66319 q 0,-1.529023 -0.96408,-2.55451 -0.96407,-1.025486 -2.41943,-1.025486 z"
                 fill="#aa0000"
                 stroke-width="0.614064"
                 id="path11"
                 style="fill:#b380ff;stroke:none;stroke-width:2.1799;stroke-dasharray:none" />
              <g
                 transform="matrix(1.0451653,0,0,1.0451653,90.593116,97.160513)"
                 fill="#ffffff"
                 id="g15"
                 style="fill:#7f2aff;stroke:none;stroke-width:2.0857;stroke-dasharray:none;stroke-opacity:1;filter:url(#editing-jagged)">
                <path
                   d="m 3.46,-7.55 v -34.11 q 0.64,-0.2 2.04,-0.42 1.41,-0.22 2.88,-0.22 1.41,0 2.53,0.19 1.12,0.19 1.89,0.77 0.77,0.57 1.15,1.56 0.39,1 0.39,2.6 v 6.27 q 1.6,-0.64 3.04,-0.9 1.44,-0.25 3.16,-0.25 3.08,0 5.83,1.08 2.75,1.09 4.86,3.17 2.11,2.08 3.33,5.15 1.22,3.08 1.22,7.11 0,4.16 -1.25,7.26 -1.25,3.11 -3.49,5.15 -2.24,2.05 -5.47,3.11 -3.23,1.05 -7.14,1.05 -4.22,0 -7.17,-0.99 Q 8.32,-0.96 6.27,-2.43 3.46,-4.42 3.46,-7.55 Z m 14.97,0 q 2.95,0 4.58,-2.02 1.63,-2.01 1.63,-5.98 0,-4.03 -1.66,-6.02 -1.67,-1.98 -4.48,-1.98 -1.28,0 -2.21,0.25 -0.93,0.26 -2.02,0.77 v 13.95 q 0.71,0.45 1.7,0.74 0.99,0.29 2.46,0.29 z m 22.66,-4.8 v -18.31 q 0.64,-0.19 2.01,-0.38 1.38,-0.19 2.85,-0.19 1.41,0 2.53,0.19 1.12,0.19 1.89,0.77 0.77,0.57 1.18,1.57 0.42,0.99 0.42,2.59 v 13.76 q 0,2.62 1.28,3.74 1.28,1.12 3.71,1.12 1.47,0 2.4,-0.25 0.93,-0.26 1.44,-0.52 v -22.4 q 0.64,-0.19 2.02,-0.38 1.37,-0.19 2.84,-0.19 1.41,0 2.53,0.19 1.12,0.19 1.89,0.77 0.77,0.57 1.18,1.57 0.42,0.99 0.42,2.59 v 19.45 q 0,3.2 -2.69,4.8 -2.24,1.41 -5.34,2.15 -3.11,0.73 -6.75,0.73 -3.46,0 -6.37,-0.76 -2.91,-0.77 -5.03,-2.37 -2.11,-1.6 -3.26,-4.13 -1.15,-2.53 -1.15,-6.11 z m 63.49,3.07 q 0,4.86 -3.65,7.62 -3.65,2.75 -10.75,2.75 -2.69,0 -5,-0.39 -2.3,-0.38 -3.93,-1.18 -1.63,-0.8 -2.56,-2.02 -0.93,-1.21 -0.93,-2.88 0,-1.53 0.64,-2.59 0.64,-1.05 1.54,-1.76 1.85,1.03 4.25,1.83 2.4,0.8 5.54,0.8 1.98,0 3.04,-0.58 1.05,-0.58 1.05,-1.54 0,-0.89 -0.76,-1.4 -0.77,-0.52 -2.56,-0.84 l -1.92,-0.38 q -5.57,-1.09 -8.29,-3.42 -2.72,-2.34 -2.72,-6.69 0,-2.37 1.02,-4.29 1.03,-1.92 2.88,-3.2 1.86,-1.28 4.45,-1.98 2.59,-0.71 5.73,-0.71 2.37,0 4.45,0.35 2.08,0.36 3.61,1.06 1.54,0.7 2.43,1.82 0.9,1.12 0.9,2.66 0,1.47 -0.54,2.53 -0.55,1.05 -1.38,1.76 -0.51,-0.32 -1.54,-0.67 -1.02,-0.36 -2.24,-0.64 -1.21,-0.29 -2.46,-0.48 -1.25,-0.2 -2.27,-0.2 -2.11,0 -3.27,0.48 -1.15,0.48 -1.15,1.51 0,0.7 0.64,1.15 0.64,0.45 2.43,0.83 l 1.99,0.45 q 6.14,1.41 8.73,3.87 2.6,2.47 2.6,6.37 z m 35.96,-10.18 v 19.4 q -0.64,0.19 -2.01,0.38 -1.38,0.19 -2.85,0.19 -1.41,0 -2.53,-0.19 -1.12,-0.19 -1.89,-0.77 -0.76,-0.57 -1.18,-1.57 -0.42,-0.99 -0.42,-2.59 v -14.21 q 0,-2.62 -1.31,-3.68 -1.31,-1.05 -3.23,-1.05 -1.28,0 -2.43,0.32 -1.15,0.32 -1.86,0.77 v 22.4 q -0.64,0.19 -2.01,0.38 -1.38,0.19 -2.85,0.19 -1.41,0 -2.53,-0.19 -1.12,-0.19 -1.89,-0.77 -0.77,-0.57 -1.18,-1.57 -0.42,-0.99 -0.42,-2.59 v -37.12 q 0.71,-0.13 2.08,-0.35 1.38,-0.22 2.79,-0.22 1.4,0 2.52,0.19 1.12,0.19 1.89,0.77 0.77,0.57 1.19,1.56 0.41,1 0.41,2.6 v 6.27 q 0.83,-0.32 2.53,-0.74 1.7,-0.41 3.74,-0.41 6.34,0 9.89,3.16 3.55,3.17 3.55,9.44 z"
                   fill="#ffffff"
                   id="path13"
                   style="fill:#7f2aff;stroke:none;stroke-width:2.0857;stroke-dasharray:none;stroke-opacity:1" />
              </g>
            </g>
          </g>
        </g>
      </g>
    </g>
  </g>
</svg>
