<svg width="105.4" height="118" version="1.1" viewBox="0 0 7.5096 8.4071" xml:space="preserve" xmlns="http://www.w3.org/2000/svg">
<path d="m7.5026 1.2515c-0.11436-0.69808-1.7482-1.2516-3.7478-1.2516-1.9996 0-3.6334 0.55352-3.7478 1.2516h-0.0070402v5.7886h0.0070402c0.11436 0.69792 1.7483 1.2516 3.7478 1.2516s3.6334-0.55368 3.7478-1.2516h0.00704v-5.7886z" fill="#545e73" stroke-width=".15645"/><g transform="matrix(.15645 0 0 .15645 -.23468 -6.5973e-5)" fill="#38454f">
			<path d="m25.5 41c-13.255 0-24-3.806-24-8.5v12.5h0.045c0.731 4.461 11.175 8 23.955 8s23.224-3.539 23.955-8h0.045v-12.5c0 4.694-10.745 8.5-24 8.5z"/>
			<path d="m1.5 32v0.5c0-0.168 0.018-0.334 0.045-0.5z"/>
			<path d="m49.455 32c0.027 0.166 0.045 0.332 0.045 0.5v-0.5z"/>
		</g><g transform="matrix(.15645 0 0 .15645 -.23468 -6.5973e-5)" fill="#556080">
			<path d="m25.5 29c-13.255 0-24-3.806-24-8.5v12.5h0.045c0.731 4.461 11.175 8 23.955 8s23.224-3.539 23.955-8h0.045v-12.5c0 4.694-10.745 8.5-24 8.5z"/>
			<path d="m1.5 20v0.5c0-0.168 0.018-0.334 0.045-0.5z"/>
			<path d="m49.455 20c0.027 0.166 0.045 0.332 0.045 0.5v-0.5z"/>
		</g><ellipse cx="3.7548" cy="1.3298" rx="3.7548" ry="1.3298" fill="#91bae1" stroke-width=".15645"/><g transform="matrix(.15645 0 0 .15645 -.23468 -6.5973e-5)" fill="#8697cb">
			<path d="m25.5 17c-13.255 0-24-3.806-24-8.5v12.5h0.045c0.731 4.461 11.175 8 23.955 8s23.224-3.539 23.955-8h0.045v-12.5c0 4.694-10.745 8.5-24 8.5z"/>
			<path d="m1.5 8v0.5c0-0.168 0.018-0.334 0.045-0.5z"/>
			<path d="m49.455 8c0.027 0.166 0.045 0.332 0.045 0.5v-0.5z"/>
		</g><path d="m6.6745 5.9567c-0.61402 1.1242-1.3437 1.9411-2.6764 1.9727-1.2948 0.030653-2.2645-0.86805-2.8802-1.8787 0.55649 0.63584 1.3666 1.3622 2.8109 1.328 1.7256-0.040855 2.0129-0.66501 2.7459-1.422z" fill="#6f7c91" stroke-width=".21232"/><path d="m6.4915 6.4212h0.30128l-0.58644 1.2299q0.021922 0.19744 0.021922 0.34514 0 0.41095-0.15356 0.41095-0.11114 0-0.11114-0.17258 0-0.22521 0.16379-0.56452-0.032163-0.2106-0.090668-0.50746-0.057035-0.29688-0.11846-0.42558-0.059961-0.1287-0.17258-0.1287-0.18427 0-0.19744 0.27495h-0.052647q0-0.4826 0.28663-0.4826 0.16526 0 0.24569 0.19597 0.080439 0.1945 0.16526 0.84826z" fill="#ff7f2a" filter="url(#editing-jagged-67)" stroke-width=".0078931"/><g transform="matrix(.68741 0 0 .68741 -11.137 -14.885)" fill="#afc6e9"><path d="m25.276 28.372c0.27789 0.0085 0.42467 0.01275 0.44036 0.01275h0.02819c0.06847-0.0058 0.1027 0.0043 0.1027 0.03021 0 0.03983-0.05571 0.05974-0.16714 0.05974l-0.36518-0.0087c-0.07473 0.0058-0.11926 0.01298-0.13358 0.02148-0.11993 0.14902-0.2817 0.3647-0.48531 0.64708-0.20316 0.28192-0.30475 0.45018-0.30475 0.50478 0 0.02282 0.02573 0.017 0.07719-0.01745 0.03133 0 0.04699 0.0043 0.04699 0.01275 0 0.01432-0.03133 0.0358-0.09398 0.06444l-0.12083 0.06444c-0.05415 0.04609-0.11635 0.06914-0.18661 0.06914s-0.10248-0.01723-0.09666-0.05169c0.0027-0.06892 0.10427-0.24299 0.30475-0.52222 0.20048-0.27924 0.40813-0.54483 0.62291-0.7968-0.20585 0.03714-0.36336 0.05571-0.47255 0.05571-0.01119-0.0027-0.01678-0.01186-0.01678-0.02752 0-0.01611 0.01723-0.03849 0.05169-0.06713 0.03401-0.02864 0.07048-0.04296 0.10942-0.04296 0.03849 0 0.10069-0.0013 0.18661-4e-3h0.2195c0.09711-0.13156 0.31325-0.4352 0.64842-0.91088 0.13738-0.19735 0.20608-0.36045 0.20608-0.48936 0-0.20048-0.1488-0.30072-0.4464-0.30072-0.23225 0-0.50522 0.06444-0.81893 0.19332-0.31326 0.12888-0.60169 0.30497-0.86526 0.52826-0.18616 0.15439-0.33361 0.32198-0.44235 0.50279-0.10919 0.18034-0.16379 0.34054-0.16379 0.48062 0 0.22645 0.1347 0.33967 0.40408 0.33967 0.02282 0 0.04721-0.0013 0.07317-4e-3 0.17453-0.01432 0.33987-0.11389 0.49607-0.29871 0.15618-0.18482 0.23427-0.34031 0.23427-0.46651 0-0.01119-0.0016-0.02394-0.0047-0.03826 0.07473 0.01432 0.1121 0.05862 0.1121 0.13291 0 0.12306-0.08033 0.26784-0.24098 0.43432-0.21749 0.22599-0.46945 0.33899-0.75583 0.33899-0.15752 0-0.28058-0.04139-0.36919-0.12418-0.08905-0.08324-0.13358-0.19646-0.13358-0.33967 0-0.33788 0.2063-0.67862 0.6189-1.0223 0.2976-0.24345 0.61397-0.4276 0.94915-0.55246 0.33519-0.1244 0.62673-0.18661 0.87464-0.18661 0.24748 0 0.43206 0.0358 0.55377 0.1074s0.18256 0.17117 0.18258 0.29871c1.6e-5 0.12754-0.0557 0.27141-0.16714 0.43162-0.06623 0.10606-0.29692 0.41974-0.69206 0.94109z" filter="url(#editing-jagged-9)" stroke-width=".067127"/><g transform="matrix(.073025 0 0 .073025 1.8534 22.456)" filter="url(#editing-jagged-6-2)"><g transform="translate(220.42,97.18)" fill="#afc6e9"><path d="m11.97-1.6q-5.63 4.35-8.26 4.35-1.41 0-2.08-1.37-0.67-1.38-0.67-2.98 0-3.07 2.59-9.22 2.59-6.14 4.96-6.14 1.22 0 2.08 4.8 0.87 4.8 1.76 6.98 4.35-4.61 12.61-15.36 10.37-13.64 13.76-14.92 1.15-0.44 2.37-0.44 1.21 0 2.01 0.51t0.8 1.28q0 1.09-1.85 1.28-2.24 1.21-6.91 5.89-4.68 4.54-7.49 8.51-6.85 9.53-14.08 15.55 3.58 5.31 11.26 5.31 0.83 0 2.5-0.13 17.79-1.66 25.21-15.42 3.01-5.5 3.01-10.88t-3.9-9.66q-3.14-3.52-6.82-4.36-3.68-0.83-7.52-0.83-9.85 0-18.17 4.55-8.77 4.8-8.77 10.75 0 1.6 0.86 2.62 0.87 1.03 1.19 1.15h-0.39q-1.66-0.32-2.94-1.66-1.41-1.66-1.41-3.52 0-6.4 8.03-11.01t18.85-4.61q4.99 0 10.24 1.16 5.25 1.15 9.54 5.5 4.92 5.12 4.92 11.58 0 4.8-2.81 9.92-4.87 8.84-14.53 12.93-7.74 3.27-16.7 3.27t-13.25-5.38zm-8.71-0.26q0 1.99 0.77 3.46 2.75-1.22 6.66-5.06-1.86-3.07-2.34-4.83t-0.67-4.64q-4.42 6.34-4.42 11.07zm9.16-17.92q0.06 0 0.12-0.06 0 0.13-0.03 0.13t-0.09-0.07z" fill="#afc6e9"/></g></g></g></svg>
