<svg width="256.38" height="120" preserveAspectRatio="xMidYMid" version="1.1" viewBox="61.959 5.6 256.38 120" xmlns="http://www.w3.org/2000/svg">
 <defs>
  <filter id="editing-jagged-46-1" x="0" y="0" width="1" height="1">
   <feTurbulence baseFrequency="0" result="turb" seed="1"/>
   <feDisplacementMap in="SourceGraphic" in2="turb"/>
  </filter>
 </defs>
 <g transform="translate(-.00017188 .00014026)">
  <path d="m236.57 125.19c-4.1718-1.1236-7.4938-4.2735-8.763-8.3096-0.93892-2.9858-0.56285-7.1453 0.86857-9.6065 0.50148-0.86227 0.50308-0.90978 0.0452-1.3452-0.7415-0.70507-15.371-11.829-15.749-11.976-0.18553-0.07184-0.54515 0.05747-0.79915 0.28734-0.68073 0.61603-2.5728 1.2179-3.8288 1.2179-3.6747 0-6.6959-2.9627-6.6959-6.5667v-1.4848l-10.872-5.0379-0.2952 0.85266c-1.4487 4.1847-4.8374 7.671-8.8793 9.1353-1.8675 0.67656-6.3269 0.96062-8.0945 0.51556l-1.1405-0.28718-2.7526 2.8123c-1.514 1.5468-3.1391 3.2612-3.6116 3.8097l-0.85905 0.99746 0.56383 0.70586c4.0159 5.0274 3.0437 12.159-2.1255 15.59-5.1946 3.4481-12.446 1.6119-15.125-3.8301-1.6178-3.2864-1.648-6.4139-0.0924-9.5934 2.1889-4.474 7.6474-6.802 12.404-5.2908l1.7033 0.54119 2.3119-2.2865c1.2716-1.2576 2.7916-2.8535 3.3781-3.5463l1.0661-1.2597-0.62653-0.43443c-3.2083-2.2246-5.4706-5.7004-6.3618-9.7739l-0.14733-0.67355-8.4579 1.3876c-4.6519 0.76314-8.5465 1.3905-8.6545 1.3942-0.1081 0.0036-0.19654 0.87006-0.19654 1.9253 0 1.0674-0.1851 2.462-0.41718 3.143-0.53972 1.584-2.4438 3.6891-4.1404 4.578-1.1594 0.60733-1.6539 0.7018-3.697 0.70615-1.9725 0.0042-2.5696-0.09888-3.6485-0.62989-2.9617-1.4576-4.7146-4.2853-4.7245-7.6212-7e-3 -2.4331 0.83824-4.3665 2.6326-6.0206 1.7967-1.6561 3.2363-2.2104 5.7402-2.2101 1.7873 2.25e-4 2.3206 0.11213 3.6173 0.75905 1.5307 0.76361 3.1035 2.2413 3.6409 3.4205 0.2089 0.45848 0.44331 0.60151 0.83963 0.51228 0.81964-0.18452 16.766-2.7489 17.094-2.7489 0.15634 0 0.35308-0.7585 0.44103-1.7002 0.22208-2.3782 1.2136-5.0387 2.6362-7.074 0.66629-0.95313 1.2114-1.9146 1.2114-2.1367 0-0.46477-3.0848-16.569-3.2686-17.063-0.067-0.18016-0.40141-0.32756-0.74322-0.32756-0.9894 0-3.7395-1.5084-4.6587-2.5553-1.9055-2.1703-2.6394-5.0259-1.9664-7.6526 0.22998-0.89768 0.36153-1.7238 0.29232-1.8357-0.27004-0.43694-5.6632-4.2035-6.0188-4.2035-0.2075 0-0.45775 0.1302-0.5561 0.28933-0.40408 0.65382-2.369 1.2715-4.045 1.2715-2.1623 0-3.4931-0.59011-4.8775-2.1628-3.7586-4.2698-0.79383-10.907 4.8775-10.92 2.7169-6e-3 5.5162 1.9698 6.247 4.4095 0.42043 1.4033 0.38044 3.54-0.0872 4.6592-0.21524 0.51514-0.33213 1.0324-0.25975 1.1495 0.0724 0.1171 1.3725 1.1172 2.8891 2.2225l2.7576 2.0096 1.0739-0.97021c1.7067-1.5419 3.5272-2.2494 5.7882-2.2494h1.9202l0.735-7.5193c0.40424-4.1357 0.79839-8.0714 0.87588-8.7462 0.13714-1.1943 0.11738-1.2368-0.74517-1.6031-2.7738-1.1778-4.1359-4.6744-2.8786-7.3901 1.7128-3.6996 6.4635-4.3859 9.1534-1.3223 1.0965 1.2488 1.356 1.9406 1.356 3.615 0 2.5782-1.8914 4.969-4.2263 5.3424-1.1746 0.18782-0.99532-0.64698-1.9338 9.0048-0.35738 3.6753-0.7171 7.2176-0.79941 7.872l-0.14964 1.1896 1.3579 0.87991c1.6303 1.0564 3.2872 3.4564 3.5372 5.1233l0.17021 1.135 20.735 8.9519 1.4114-1.5596c0.97124-1.0733 1.9568-1.8284 3.1603-2.4214 1.5422-0.75989 2.0476-0.87229 4.2761-0.95074l2.5273-0.08898 4.8173-8.6665c2.6493-4.7667 5.2054-9.6117 5.2698-9.6914 0.0644-0.07944-0.62709-0.96377-1.1793-1.6079-2.4908-2.9051-2.351-7.0371 0.33728-9.9741 1.2-1.311 2.4485-1.9199 4.5644-2.2263 1.3043-0.18885 1.7902-0.12602 3.2898 0.42531 2.0472 0.75261 3.1637 1.7096 4.1079 3.5209 1.385 2.6569 1.0309 5.9852-0.88208 8.2871-1.6721 2.0123-5.1029 3.1522-7.4239 2.4671-0.8024-0.2369-0.7688 0.29559-5.5827 8.9301-2.6716 4.7924-4.926 8.8916-5.0094 9.1099-0.10252 0.26782 0.14928 0.55887 0.77512 0.8959 1.2165 0.65515 3.078 2.664 3.8063 4.1076 0.31934 0.63301 0.60531 1.1803 0.6355 1.2162 0.0302 0.03588 1.2833-0.10936 2.7848-0.32277 1.5015-0.2134 2.8183-0.39017 2.9266-0.39281 0.1081-0.0026 0.19654-0.59315 0.19654-1.3122 0-2.9564 1.8112-5.7321 4.6535-7.1306 1.5303-0.75308 2.0115-0.86283 3.7274-0.85012 2.4477 0.01813 4.0854 0.69262 5.8209 2.3975 1.7728 1.7413 2.4314 3.3694 2.4166 5.9734-0.0145 2.5464-0.66826 4.1113-2.4748 5.9242-3.7622 3.7751-10.701 2.7636-13.115-1.9118-0.45136-0.87428-0.58073-0.95412-1.3536-0.83534-0.46999 0.07223-1.7979 0.27468-2.951 0.44989-1.8374 0.27921-2.0898 0.38241-2.0427 0.83534 0.12355 1.189-0.51936 3.9512-1.2621 5.4226-0.43841 0.86851-0.69965 1.6673-0.58052 1.7751 0.24628 0.22278 12.88 8.9755 13.388 9.275 0.21333 0.12588 0.80242-0.32072 1.6583-1.2572 0.87449-0.95682 1.9225-1.7452 3.0712-2.3104 1.6064-0.7904 1.9401-0.85724 4.2379-0.84857 2.2046 0.0083 2.6758 0.09745 4.0607 0.76796 1.9897 0.96343 3.7541 2.7245 4.7384 4.729 0.69648 1.4185 0.77033 1.8202 0.77027 4.1894-5e-5 2.341-0.0785 2.7804-0.73554 4.1186-1.0139 2.0651-2.7258 3.7418-4.8395 4.7397-1.5636 0.73814-2.0134 0.8301-3.9897 0.81558-3.1152-0.02288-4.8655-0.73563-6.9674-2.8375-1.1655-1.1655-1.7564-2.0188-2.1935-3.1677-0.58909-1.5482-0.82179-4.0526-0.53511-5.7588 0.12779-0.76055-0.0495-0.90549-7.1789-5.8699-6.7247-4.6826-7.3542-5.0625-7.8615-4.7452-4.762 2.9766-10.089 2.4694-13.611-1.2957-1.9901-2.1275-2.653-3.8204-2.7148-6.932l-0.0514-2.5893-9.8961-4.2782c-5.4428-2.353-9.9123-4.2539-9.932-4.224-0.0197 0.02975-0.37436 0.68602-0.78822 1.4584-0.87226 1.6279-2.3178 2.958-3.9425 3.6278-0.76152 0.31388-1.1081 0.60222-1.0386 0.86414 0.0574 0.21619 0.72695 3.6949 1.488 7.7305 0.76104 4.0356 1.4184 7.3851 1.4609 7.4433 0.0425 0.05821 0.87467-0.25775 1.8494-0.70214 5.4058-2.4647 11.561-1.4798 15.895 2.5434 2.6333 2.4444 4.2732 5.7798 4.5699 9.2957l0.17479 2.0709 11.526 5.3366 0.75308-0.75308c3.2022-3.2023 8.6838-2.3658 10.723 1.6362 0.72404 1.4207 0.84228 2.4057 0.63311 5.2751-0.0458 0.62782 0.78036 1.3349 8.0376 6.8788 4.4488 3.3985 8.1416 6.1791 8.2066 6.1791 0.0649 0 0.49339-0.28133 0.95218-0.62519 3.0403-2.2785 7.1044-3.076 10.788-2.1164 4.5675 1.1897 8.2365 5.2866 9.0491 10.105 1.4571 8.6387-6.9357 16.261-15.396 13.983z" fill="#006680" stroke-width=".26205"/>
  <path transform="matrix(.98598 0 0 .97366 15.415 10.837)" d="m66.596 78.71q-9.15 0-14.27-4.77t-5.12-13.92 5.12-13.92 14.2-4.77q4.42 0 8.45 1.22 4.03 1.21 6.27 2.75v12.67h-11v-1.15q0-2.11-0.9-3.11-0.9-0.99-2.82-0.99-3.71 0-3.71 4.1v5.5q0 4.99 5.7 4.99 5.31 0 12.35-1.15v10.05q-2.18 0.96-6.11 1.73-3.94 0.77-8.16 0.77zm44.16-37.38q1.28 0 2.43 0.26 1.15 0.25 1.92 0.64v12.22q-2.62-1.09-5.63-1.09-4.03 0-6.21 2.11-2.18 2.12-2.18 6.28v5.56h5.76v10.5h-23.29v-10.5h2.81v-14.59h-2.81v-10.49h17.53v4.67q1.8-2.69 4.1-4.13t5.57-1.44zm27.13 0.9h17.8v10.49h-2.44l-8.38 22.21q-3.14 8.38-7.17 12.58-4.03 4.19-10.62 4.19-2.69 0-5.44-0.55-2.75-0.54-4.99-1.5v-11.58h8.83v0.64q0 1.6 1.66 1.6 1.47 0 2.24-1.41l-10.11-26.18h-2.43v-10.49h19.01v10.49h-2.18l3.33 9.99 3.07-9.99h-2.18zm81.54 25.08h2.82v10.5h-20.23v-10.5h2.69v-10.49q0-2.11-0.9-3.11-0.89-0.99-2.68-0.99-3.84 0-3.84 4.1v10.49h2.68v10.5h-20.09v-10.5h2.69v-10.49q0-2.11-0.9-3.11-0.9-0.99-2.69-0.99-3.84 0-3.84 4.1v10.49h2.69v10.5h-20.22v-10.5h2.81v-14.59h-2.81v-10.49h17.53v4.99q4.61-5.89 11.52-5.89 3.91 0 6.37 1.82 2.46 1.83 3.49 5.16 2.3-3.33 5.28-5.12 2.97-1.8 7.01-1.8 5.31 0 7.96 3.33 2.66 3.33 2.66 9.15zm23.94 11.4q-9.09 0-14.21-4.77t-5.12-13.92 5.12-13.92 14.21-4.77q9.21 0 14.27 4.83 5.05 4.83 5.05 13.86 0 9.15-5.12 13.92t-14.2 4.77zm0-11.4q1.85 0 2.78-0.99t0.93-3.1v-6.4q0-2.11-0.93-3.11-0.93-0.99-2.78-0.99-1.86 0-2.79 0.99-0.93 1-0.93 3.11v6.4q0 2.11 0.93 3.1t2.79 0.99zm61.05 0h2.82v10.5h-20.23v-10.5h2.69v-10.49q0-2.11-0.89-3.11-0.9-0.99-2.69-0.99-3.84 0-3.84 4.1v10.49h2.69v10.5h-20.23v-10.5h2.82v-14.59h-2.82v-10.49h17.54v4.99q4.61-5.89 11.52-5.89 5.31 0 7.97 3.33 2.65 3.33 2.65 9.15z" fill="#ff7f2a" filter="url(#editing-jagged-46-1)"/>
 </g>
</svg>
