<svg width="256.38" height="120" preserveAspectRatio="xMidYMid" version="1.1" viewBox="61.959 5.6 256.38 120" xmlns="http://www.w3.org/2000/svg">
 <defs>
  <linearGradient id="linearGradient4-4-0" x1="3.2362" x2="256.31" y1="-17.608" y2="-17.781" gradientTransform="translate(46.306,77.81)" gradientUnits="userSpaceOnUse">
   <stop stop-color="#5a1a80" offset="0"/>
   <stop stop-color="#e10057" offset=".25"/>
   <stop stop-color="#ffb200" offset=".5"/>
   <stop stop-color="#e10057" offset=".74576"/>
   <stop stop-color="#5a1a80" offset="1"/>
  </linearGradient>
  <filter id="editing-jagged-46-1" x="0" y="0" width="1" height="1">
   <feTurbulence baseFrequency="0" result="turb" seed="1"/>
   <feDisplacementMap in="SourceGraphic" in2="turb"/>
  </filter>
 </defs>
 <g transform="matrix(.26205 0 0 .26205 131.04 -33.969)" fill="#a02c5a">
  <path d="m402.72 607.37c-15.92-4.2876-28.597-16.308-33.44-31.71-3.583-11.394-2.1479-27.267 3.3145-36.659 1.9137-3.2905 1.9198-3.4718 0.17252-5.1332-2.8296-2.6906-58.655-45.141-60.098-45.7-0.70798-0.27413-2.0803 0.21932-3.0496 1.0965-2.5977 2.3508-9.818 4.6476-14.611 4.6476-14.023 0-25.552-11.306-25.552-25.059v-5.6662l-41.489-19.225-1.1265 3.2538c-5.5285 15.969-18.46 29.273-33.884 34.861-7.1266 2.5818-24.144 3.6658-30.889 1.9674l-4.3523-1.0959-10.504 10.732c-5.7774 5.9025-11.979 12.445-13.782 14.538l-3.2782 3.8064 2.1516 2.6936c15.325 19.185 11.615 46.401-8.111 59.494-19.823 13.158-47.495 6.151-57.718-14.616-6.1737-12.541-6.2887-24.476-0.3527-36.609 8.353-17.073 29.183-25.957 47.336-20.19l6.5 2.0652 8.8225-8.7256c4.8524-4.7991 10.653-10.889 12.891-13.533l4.0684-4.8071-2.3909-1.6578c-12.243-8.4892-20.876-21.753-24.277-37.298l-0.56222-2.5703-32.276 5.295c-17.752 2.9122-32.614 5.3064-33.026 5.3203-0.4125 0.0139-0.75 3.3202-0.75 7.3472 0 4.0732-0.70637 9.395-1.592 11.994-2.0596 6.0446-9.3256 14.078-15.8 17.47-4.4244 2.3176-6.3114 2.6781-14.108 2.6947-7.5271 0.0161-9.8057-0.37734-13.923-2.4037-11.302-5.5623-17.991-16.353-18.029-29.083-0.0275-9.2849 3.1988-16.663 10.046-22.975 6.8563-6.3199 12.35-8.4352 21.905-8.434 6.8206 8.6e-4 8.8557 0.42791 13.804 2.8966 5.8411 2.914 11.843 8.5529 13.894 13.053 0.79718 1.7496 1.6917 2.2954 3.2041 1.9549 3.1278-0.70413 63.981-10.49 65.232-10.49 0.59661 0 1.3474-2.8945 1.683-6.488 0.84747-9.0754 4.6312-19.228 10.06-26.995 2.5426-3.6372 4.6229-7.3064 4.6229-8.1538 0-1.7736-11.772-63.227-12.473-65.113-0.25552-0.6875-1.5318-1.25-2.8362-1.25-3.7756 0-14.27-5.7562-17.778-9.7512-7.2716-8.2819-10.072-19.179-7.5039-29.203 0.8776-3.4256 1.3796-6.578 1.1155-7.0052-1.0305-1.6674-21.611-16.041-22.968-16.041-0.79182 0-1.7468 0.49686-2.1221 1.1041-1.542 2.495-9.0403 4.852-15.436 4.852-8.2516 0-13.33-2.2519-18.613-8.2534-14.343-16.294-3.0293-41.623 18.613-41.671 10.368-0.023 21.05 7.517 23.839 16.827 1.6044 5.3551 1.4518 13.509-0.3328 17.78-0.82135 1.9658-1.2674 3.9397-0.99122 4.3866 0.27618 0.44687 5.2375 4.2635 11.025 8.4813l10.523 7.6688 4.0981-3.7024c6.5128-5.884 13.46-8.5838 22.088-8.5838h7.3276l2.8048-28.694c1.5426-15.782 3.0467-30.801 3.3424-33.376 0.52333-4.5576 0.44794-4.7198-2.8436-6.1174-10.585-4.4945-15.783-17.838-10.985-28.201 6.5363-14.118 24.665-16.737 34.93-5.0459 4.1842 4.7655 5.1744 7.4056 5.1744 13.795 0 9.8387-7.2178 18.962-16.128 20.387-4.4823 0.71675-3.7982-2.4689-7.3797 34.363-1.3638 14.025-2.7365 27.543-3.0506 30.04l-0.57102 4.5395 5.1819 3.3578c6.2215 4.0314 12.544 13.19 13.498 19.551l0.64954 4.3314 79.126 34.161 5.386-5.9517c3.7063-4.0956 7.4673-6.9773 12.06-9.2402 5.885-2.8998 7.8138-3.3287 16.318-3.6281l9.6445-0.33956 18.383-33.072c10.11-18.19 19.864-36.679 20.11-36.983 0.24571-0.30316-2.393-3.6778-4.5004-6.1357-9.505-11.086-8.9714-26.854 1.2871-38.062 4.5792-5.0028 9.3437-7.3266 17.418-8.4956 4.9774-0.72066 6.8316-0.4809 12.554 1.623 7.8121 2.872 12.073 6.5241 15.676 13.436 5.2854 10.139 3.934 22.84-3.3661 31.624-6.381 7.679-19.473 12.029-28.33 9.4146-3.062-0.90402-2.9338 1.128-21.304 34.078-10.195 18.288-18.798 33.931-19.116 34.764-0.39123 1.022 0.56968 2.1327 2.9579 3.4188 4.6424 2.5001 11.746 10.166 14.525 15.675 1.2186 2.4156 2.3099 4.5041 2.4251 4.641 0.11515 0.13693 4.8973-0.41732 10.627-1.2317 5.7297-0.81435 10.755-1.4889 11.168-1.499 0.4125-0.0101 0.75-2.2635 0.75-5.0076 0-11.282 6.9118-21.874 17.758-27.211 5.8398-2.8738 7.676-3.2926 14.224-3.2441 9.3405 0.0692 15.59 2.6431 22.213 9.149 6.765 6.6448 9.2786 12.858 9.2221 22.795-0.0553 9.7171-2.5501 15.689-9.4441 22.607-14.357 14.406-40.836 10.546-50.047-7.2956-1.7224-3.3363-2.2161-3.641-5.1653-3.1877-1.7935 0.27564-6.8608 1.0482-11.261 1.7168-7.0116 1.0655-7.9747 1.4593-7.7951 3.1877 0.47149 4.5372-1.9819 15.078-4.8163 20.693-1.673 3.3143-2.6699 6.3625-2.2153 6.7738 0.93985 0.85015 49.152 34.251 51.089 35.394 0.81408 0.48036 3.0621-1.2239 6.3283-4.7977 3.3371-3.6513 7.3363-6.6599 11.72-8.8168 6.1301-3.0162 7.4037-3.2713 16.172-3.2382 8.413 0.0317 10.211 0.37186 15.496 2.9306 7.5929 3.6765 14.326 10.397 18.082 18.046 2.6578 5.4132 2.9396 6.946 2.9394 15.987-1.9e-4 8.9333-0.2996 10.61-2.8069 15.717-3.8691 7.8806-10.402 14.279-18.468 18.087-5.9666 2.8168-7.6831 3.1677-15.225 3.1123-11.888-0.0873-18.567-2.8072-26.588-10.828-4.4475-4.4475-6.7026-7.704-8.3704-12.088-2.248-5.9082-3.136-15.465-2.042-21.976 0.48765-2.9023-0.18882-3.4554-27.395-22.4-25.662-17.869-28.064-19.319-30-18.108-18.172 11.359-38.502 9.4235-51.941-4.9443-7.5942-8.1188-10.124-14.579-10.36-26.453l-0.19598-9.8808-37.764-16.326c-20.77-8.9791-37.826-16.233-37.901-16.119-0.0751 0.11353-1.4286 2.6179-3.0079 5.5652-3.3286 6.2122-8.845 11.288-15.045 13.844-2.906 1.1978-4.2285 2.2981-3.9633 3.2976 0.21888 0.825 2.7741 14.1 5.6783 29.5s5.4129 28.182 5.5749 28.404c0.16203 0.22215 3.3378-0.9836 7.0573-2.6794 20.629-9.4055 44.117-5.6472 60.657 9.7056 10.049 9.3281 16.307 22.056 17.439 35.473l0.66702 7.9028 43.984 20.365 2.8738-2.8738c12.22-12.22 33.138-9.0279 40.921 6.244 2.763 5.4215 3.2142 9.1804 2.416 20.13-0.17464 2.3958 2.9779 5.0939 30.672 26.25 16.977 12.969 31.069 23.58 31.317 23.58 0.24768 0 1.8828-1.0736 3.6336-2.3858 11.602-8.695 27.111-11.738 41.168-8.0762 17.43 4.54 31.431 20.174 34.532 38.561 5.5605 32.966-26.467 62.054-58.752 53.36z" fill="#a02c5a"/>
 </g>
 <path transform="matrix(.98598 0 0 .97366 15.415 10.837)" d="m66.596 78.71q-9.15 0-14.27-4.77t-5.12-13.92 5.12-13.92 14.2-4.77q4.42 0 8.45 1.22 4.03 1.21 6.27 2.75v12.67h-11v-1.15q0-2.11-0.9-3.11-0.9-0.99-2.82-0.99-3.71 0-3.71 4.1v5.5q0 4.99 5.7 4.99 5.31 0 12.35-1.15v10.05q-2.18 0.96-6.11 1.73-3.94 0.77-8.16 0.77zm44.16-37.38q1.28 0 2.43 0.26 1.15 0.25 1.92 0.64v12.22q-2.62-1.09-5.63-1.09-4.03 0-6.21 2.11-2.18 2.12-2.18 6.28v5.56h5.76v10.5h-23.29v-10.5h2.81v-14.59h-2.81v-10.49h17.53v4.67q1.8-2.69 4.1-4.13t5.57-1.44zm27.13 0.9h17.8v10.49h-2.44l-8.38 22.21q-3.14 8.38-7.17 12.58-4.03 4.19-10.62 4.19-2.69 0-5.44-0.55-2.75-0.54-4.99-1.5v-11.58h8.83v0.64q0 1.6 1.66 1.6 1.47 0 2.24-1.41l-10.11-26.18h-2.43v-10.49h19.01v10.49h-2.18l3.33 9.99 3.07-9.99h-2.18zm81.54 25.08h2.82v10.5h-20.23v-10.5h2.69v-10.49q0-2.11-0.9-3.11-0.89-0.99-2.68-0.99-3.84 0-3.84 4.1v10.49h2.68v10.5h-20.09v-10.5h2.69v-10.49q0-2.11-0.9-3.11-0.9-0.99-2.69-0.99-3.84 0-3.84 4.1v10.49h2.69v10.5h-20.22v-10.5h2.81v-14.59h-2.81v-10.49h17.53v4.99q4.61-5.89 11.52-5.89 3.91 0 6.37 1.82 2.46 1.83 3.49 5.16 2.3-3.33 5.28-5.12 2.97-1.8 7.01-1.8 5.31 0 7.96 3.33 2.66 3.33 2.66 9.15zm23.94 11.4q-9.09 0-14.21-4.77t-5.12-13.92 5.12-13.92 14.21-4.77q9.21 0 14.27 4.83 5.05 4.83 5.05 13.86 0 9.15-5.12 13.92t-14.2 4.77zm0-11.4q1.85 0 2.78-0.99t0.93-3.1v-6.4q0-2.11-0.93-3.11-0.93-0.99-2.78-0.99-1.86 0-2.79 0.99-0.93 1-0.93 3.11v6.4q0 2.11 0.93 3.1t2.79 0.99zm61.05 0h2.82v10.5h-20.23v-10.5h2.69v-10.49q0-2.11-0.89-3.11-0.9-0.99-2.69-0.99-3.84 0-3.84 4.1v10.49h2.69v10.5h-20.23v-10.5h2.82v-14.59h-2.82v-10.49h17.54v4.99q4.61-5.89 11.52-5.89 5.31 0 7.97 3.33 2.65 3.33 2.65 9.15z" fill="url(#linearGradient4-4-0)" filter="url(#editing-jagged-46-1)"/>
</svg>
