<svg width="199.23" height="80" preserveAspectRatio="xMidYMid" version="1.1" viewBox="61.959 5.6 199.23 80" xmlns="http://www.w3.org/2000/svg">
 <defs>
  <filter id="editing-jagged" x="0" y="0" width="1" height="1">
   <feTurbulence baseFrequency="0" result="turb" seed="1"/>
   <feDisplacementMap in="SourceGraphic" in2="turb"/>
  </filter>
  <filter id="editing-jagged-6" x="0" y="0" width="1" height="1">
   <feTurbulence baseFrequency="0" result="turb" seed="1"/>
   <feDisplacementMap in="SourceGraphic" in2="turb"/>
  </filter>
 </defs>
 <g transform="matrix(.41442 0 0 .41442 103.28 31.009)" fill="#6f7c91" filter="url(#editing-jagged)">
  <g transform="matrix(1.1428 0 0 1.1428 14.242 8.7585)">
   <path d="m86.186-59.586h25.362l-49.368 103.54q1.8454 16.621 1.8454 29.055 0 34.595-12.927 34.595-9.3561 0-9.3561-14.528 0-18.959 13.788-47.522-2.7076-17.728-7.6326-42.72-4.8014-24.992-9.9721-35.826-5.0477-10.834-14.528-10.834-15.512 0-16.621 23.146h-4.432q0-40.627 24.13-40.627 13.912 0 20.683 16.497 6.7715 16.374 13.912 71.409z" fill="#d4aa00" stroke-width=".66446"/>
   <path d="m166 44.235q12.353 0.37796 13.05 0.37796 0.69624 0 0.83549 0 3.0436-0.2586 3.0436 0.89517 0 1.7704-4.9532 1.7704l-10.822-0.2586q-3.3221 0.2586-3.9586 0.63656-5.3312 6.6242-14.382 19.176-9.0312 12.532-9.0312 14.959 0 1.0145 2.2876-0.51721 1.3925 0 1.3925 0.37796 0 0.63656-2.785 1.9097l-3.5807 1.9097q-2.407 2.0489-5.5301 2.0489t-2.8645-1.5317q0.11935-3.0635 9.0312-15.476 8.9119-12.413 18.46-23.613-9.1506 1.6511-14.004 1.6511-0.49732-0.11936-0.49732-0.8156 0-0.71613 1.5317-1.9893 1.5118-1.2731 3.2425-1.2731 1.7108 0 5.5301-0.11936h6.5049q4.3167-5.8484 19.216-26.994 6.107-8.7726 6.107-14.502 0-8.9119-13.229-8.9119-10.324 0-24.269 5.7291-13.925 5.7291-25.642 15.655-8.2753 6.8629-13.109 14.9-4.8538 8.0167-4.8538 14.243 0 10.066 11.975 10.066 1.0145 0 2.1683-0.11936 7.7581-0.63656 14.701-8.8522 6.9425-8.2156 6.9425-13.825 0-0.49732-0.13925-1.1339 3.3221 0.63656 3.3221 3.9387 0 5.4705-7.1414 12.871-9.6678 10.046-22.399 10.046-7.0022 0-10.941-3.6801-3.9586-3.7-3.9586-10.066 0-15.019 18.341-30.296 13.229-10.822 28.128-16.372 14.9-5.5301 25.92-5.5301 11.001 0 16.411 3.1828t5.4108 8.8522-4.9533 12.791q-2.9441 4.7145-20.509 27.889zm46.469 4.9533q0 4.4559-8.5339 14.9-10.046 12.353-17.187 12.353h-2.029q-3.3022 0-5.2119-3.4414-1.5317-2.4269-1.5317-5.3511 0-7.6388 11.14-21.444 11.14-13.825 18.003-13.825 6.5049 0 6.5049 6.8828 0 1.7903-0.63656 4.5753 0.11936 0.39785 2.407 0.39785 2.3075 0 7.0022-2.4269-0.11935 2.1683-10.046 6.2463 0.11935 0.49732 0.11935 1.1339zm-8.2753-6.6242q-4.3167 0-12.274 10.185t-7.957 15.039q0 4.8339 3.0436 4.8339 5.4705 0 13.885-9.9264 8.3947-9.9463 8.3947-14.263-2.029-1.1538-5.0925-5.8683zm36.801 34.255q-9.5484 0-9.5484-10.563 0-5.3511 2.8049-11.717 2.785-6.3656 6.107-10.702-0.63656 0.13925-1.6511 0.13925-3.0635 0-5.0925-4.3366l-9.4291 12.234q-7.8974 9.7872-9.1705 9.7872-0.63657 0-0.63657-0.49732 0-1.2731 2.1683-3.7 11.08-12.851 15.655-21.763 2.9242-11.08 7.3802-11.08 2.9441 0 2.9441 2.5463 0 2.5463-3.1828 6.485l-3.0635 4.078q0 2.6855 3.9387 2.6855 2.3075 0 5.0925-1.671l3.3221-2.029q0.2586-0.11936 1.2731-0.11936 1.0145 0 2.1683 1.2731 1.1339 1.2731 0.75592 2.2876l-8.7925 11.08q-8.1361 10.424-8.1361 16.471 0 6.0474 5.5898 6.0474 5.8683 0 14.402-6.2264 5.0925-3.7 9.2898-8.2753 3.9387-4.5952 4.3167-4.5952 0.89517 0 0.89517 0.95484 0 0.95484-1.1339 2.228l-4.078 4.5952q-3.4414 3.5608-7.6388 6.8629-10.066 7.5194-16.551 7.5194zm50.288 0.89517q-10.066 0-17.068-15.914-1.7704 2.6656-8.0167 15.019-4.5753-1.7903-4.5753-4.8339 0-5.4705 16.411-30.058 16.431-24.567 22.538-28.884 0.51721-0.39785 2.029-0.39785 3.9586 0 3.9586 2.0489 0 1.0145-8.8522 11.458-8.8522 10.444-9.8667 12.592 11.577-5.9678 18.46-5.9678 3.9387 0 6.7436 3.1828 2.6855 2.6656 2.6855 5.4705 0 0.37796 0 0.75592-1.0344 7.2608-10.185 11.975-7.4 3.9387-13.766 3.9387t-8.9119-1.6511q-0.75592-0.11936-1.1936 0.37796-0.45753 0.51721-0.19893 1.2731 3.5608 15.795 11.836 15.795 4.3366 0 11.14-4.8339 6.8232-4.8538 14.203-13.626 0.89517-0.89517 1.5914-0.89517t0.69624 0.69624-0.89517 1.9694q-6.8629 8.4146-12.99 13.248-9.2898 7.2608-15.775 7.2608zm18.321-38.97q0-1.0145-1.1339-2.029-1.1538-1.0145-2.4269-1.0145-6.8629 0-16.491 5.7291-9.6081 5.7291-11.776 12.99 1.1538 0 6.1269 0.37796 5.7291 0 15.019-4.7145 10.682-5.3511 10.682-11.339z" fill="#6f7c91" stroke-width="1.9893"/>
   <g transform="matrix(2.1641 0 0 2.1641 -578.8 -131.08)" fill="#6f7c91" filter="url(#editing-jagged-6)">
    <g transform="translate(220.42 97.18)" fill="#6f7c91">
     <path d="m11.97-1.6q-5.63 4.35-8.26 4.35-1.41 0-2.08-1.37-0.67-1.38-0.67-2.98 0-3.07 2.59-9.22 2.59-6.14 4.96-6.14 1.22 0 2.08 4.8 0.87 4.8 1.76 6.98 4.35-4.61 12.61-15.36 10.37-13.64 13.76-14.92 1.15-0.44 2.37-0.44 1.21 0 2.01 0.51t0.8 1.28q0 1.09-1.85 1.28-2.24 1.21-6.91 5.89-4.68 4.54-7.49 8.51-6.85 9.53-14.08 15.55 3.58 5.31 11.26 5.31 0.83 0 2.5-0.13 17.79-1.66 25.21-15.42 3.01-5.5 3.01-10.88t-3.9-9.66q-3.14-3.52-6.82-4.36-3.68-0.83-7.52-0.83-9.85 0-18.17 4.55-8.77 4.8-8.77 10.75 0 1.6 0.86 2.62 0.87 1.03 1.19 1.15h-0.39q-1.66-0.32-2.94-1.66-1.41-1.66-1.41-3.52 0-6.4 8.03-11.01t18.85-4.61q4.99 0 10.24 1.16 5.25 1.15 9.54 5.5 4.92 5.12 4.92 11.58 0 4.8-2.81 9.92-4.87 8.84-14.53 12.93-7.74 3.27-16.7 3.27t-13.25-5.38zm-8.71-0.26q0 1.99 0.77 3.46 2.75-1.22 6.66-5.06-1.86-3.07-2.34-4.83t-0.67-4.64q-4.42 6.34-4.42 11.07zm9.16-17.92q0.06 0 0.12-0.06 0 0.13-0.03 0.13t-0.09-0.07z" fill="#6f7c91"/>
    </g>
   </g>
  </g>
 </g>
</svg>
