<svg width="202.24" height="89.14" preserveAspectRatio="xMidYMid" version="1.1" viewBox="113.97 14 202.24 89.14" xmlns="http://www.w3.org/2000/svg">
 <defs>
  <linearGradient id="editing-shiny-gradient" x1="5.1084" x2="99.996" y1="-50.394" y2="-8.1477" gradientTransform="scale(1.7623 .56746)" gradientUnits="userSpaceOnUse">
   <stop stop-color="#ffb200" offset="0"/>
   <stop stop-color="#e10057" offset=".5"/>
   <stop stop-color="#5A1A80" offset="1"/>
  </linearGradient>
  <filter id="editing-shiny" x="-.052448" y="-.16288" width="1.1049" height="1.5124">
   <feFlood flood-color="#fff" result="flood"/>
   <feConvolveMatrix divisor="1" in="SourceGraphic" kernelMatrix="0 0 0 0 0 0 0 0 0 0 0 1 1 0 0 0 0 0 0 1 1 0 0 0 0 0 1 0 0 1 0 0 0 0 1 0 0 1 0 0 0 1 0 0 0 0 1 0 0 1 1 0 0 1 1 0 0 0 0 1 1 0 0 0 " order="8,8" result="conv"/>
   <feOffset dx="0" dy="4" in="conv" result="offset"/>
   <feComposite in="flood" in2="offset" operator="in" result="comp"/>
   <feGaussianBlur in="offset" result="shadow" stdDeviation="3"/>
   <feColorMatrix in="shadow" result="dark-shadow" values="0.7 0 0 0 0  0 0.7 0 0 0  0 0 0.7 0 0  0 0 0 0.3 0"/>
   <feOffset dx="0" dy="4" in="dark-shadow" result="offset-shadow"/>
   <feOffset dx="0" dy="2" in="conv" result="offset-2"/>
   <feComposite in="offset" in2="offset-2" operator="out" result="edge-diff"/>
   <feGaussianBlur in="edge-diff" result="edge-blur" stdDeviation="1"/>
   <feColorMatrix in="edge-blur" result="edge-shadow" values="0 0 0 0 0  0 0 0 0 0  0 0 0 0 0  0 0 0 0.5 0"/>
   <feComposite in="edge-shadow" in2="offset" operator="in" result="edge-shadow-in"/>
   <feOffset dx="0" dy="1" in="edge-shadow-in" result="edge-shadow-final"/>
   <feMerge result="out">
    <feMergeNode in="offset-shadow"/>
    <feMergeNode in="comp"/>
    <feMergeNode in="edge-shadow-final"/>
    <feMergeNode in="SourceGraphic"/>
   </feMerge>
  </filter>
 </defs>
 <g transform="translate(-35.639 -34.79)" filter="url(#editing-shiny)">
  <g transform="translate(158.12 104.47)">
   <path d="m32.51-26.62q0 2.68-2.24 4.35-2.24 1.66-5.89 1.66-1.53 0-2.43-0.45 0.71-1.66 0.93-3.74t0.22-2.66q0-2.68-1.85-2.68-1.28 0-2.72 1.6t-2.66 4.09q-2.69 5.76-2.69 11.59 0 3.2 1.22 4.64t3.9 1.44q3.72 0 6.66-3.08 0.83-0.96 1.28-2.04 2.43 1.28 2.43 4.8 0 3.58-3.97 5.95-4.09 2.43-10.62 2.43-12.99 0-12.99-13.76 0-10.05 5.69-15.81 5.51-5.63 15.62-5.63t10.11 7.3zm21.76 8.64q2.31-4.1 2.31-8.26 0-2.75-1.99-2.75-1.53 0-3.13 2.62-1.67 2.63-2.18 6.02l-3.33 20.35-13.25 1.28 6.53-33.92 10.56-1.28-1.15 6.46q3.14-6.46 10.18-6.46 3.71 0 5.72 1.92 2.02 1.92 2.02 5.86 0 3.93-2.59 6.43-2.59 2.49-7.01 2.49-1.92 0-2.69-0.76zm33.67 10.75q-3.33 3.45-9.41 3.45-7.62 0-9.22-5.56-0.51-1.67-0.51-3.52 0-1.86 0.38-3.78l3.01-16 12.99-1.28-3.52 18.62q-0.12 0.84-0.32 1.73-0.19 0.9-0.19 1.83 0 0.92 0.32 1.53t0.77 0.99q0.77 0.52 2.14 0.52 1.38 0 2.56-1.67 1.19-1.66 1.76-4.54l3.52-17.73 12.61-1.28-4.8 25.15q-2.37 12.29-7.23 17.15-2.5 2.5-5.73 3.49t-7.39 0.99q-6.72 0-10.56-2.11t-3.84-5.63q0-2.62 1.98-4.13 1.99-1.5 5.06-1.5 2.69 0 4.74 1.15 1.21 0.7 1.79 1.6-1.47 1.28-1.47 3.39 0 2.82 2.56 2.82 4.22 0 6.65-9.73 0.71-2.88 1.35-5.95zm33.15 8.51q-14.08 0-14.08-13.25 0-9.41 5.18-15.49 5.51-6.46 15.04-6.46 6.91 0 10.43 3.2t3.52 9.92q0 10.24-5.5 16.19-5.38 5.89-14.59 5.89zm1.66-27.84q-0.77 1.73-1.37 4.32-0.61 2.59-1.38 6.69-0.77 4.09-0.77 9.15 0 1.66 0.55 2.75 0.54 1.09 2.01 1.09t2.4-0.7q0.93-0.71 1.63-2.37 1.28-2.95 2.31-8.42 1.02-5.47 1.12-7.84 0.09-2.37 0.09-4.13t-0.51-2.91-1.95-1.15-2.4 0.9q-0.96 0.89-1.73 2.62zm42.37-7.36q2.3 0 4.1 0.51 0.06-0.25 0.19-0.96l0.32-1.98q0.25-1.28 0.64-3.39l1.02-5.06 12.74-1.28-7.11 37.12q-0.06 0.38-0.06 1.02v1.03q0 1.41 0.7 2.46 0.71 1.06 1.86 1.06-1.28 3.01-5.18 4.29-1.35 0.38-3.24 0.38-1.88 0-3.61-0.99t-2.24-2.66q-1.03 1.67-3.07 2.66-2.05 0.99-5.03 0.99-2.97 0-5.44-0.77-2.46-0.77-4-2.43-2.81-3.26-2.81-10.69 0-9.6 5.63-15.42 5.63-5.89 14.59-5.89zm-0.45 3.84q-2.37 0-3.65 2.56t-2.59 8.9q-1.31 6.33-1.31 12.03 0 3.9 2.3 3.9 2.05 0 3.49-2.05 1.44-2.04 2.02-5.44l3.45-18.75q-1.34-1.15-3.71-1.15z" fill="url(#editing-shiny-gradient)"/>
  </g>
 </g>
 <style>text {
  font-size: 64px;
  font-family: Arial Black;
  dominant-baseline: central;
  text-anchor: middle;
}</style>
</svg>
