<svg width="105.4" height="116.38" version="1.1" viewBox="0 0 7.5096 8.2918" xml:space="preserve" xmlns="http://www.w3.org/2000/svg">
<g transform="matrix(.15645 0 0 .15645 -.5452 -1.4287e-5)"><g transform="translate(1.9848)">
		<path d="m49.455 8c-0.731-4.462-11.174-8-23.955-8s-23.224 3.538-23.955 8h-0.045v37h0.045c0.731 4.461 11.175 8 23.955 8s23.224-3.539 23.955-8h0.045v-37z" fill="#545e73"/>
		<g fill="#38454f">
			<path d="m25.5 41c-13.255 0-24-3.806-24-8.5v12.5h0.045c0.731 4.461 11.175 8 23.955 8s23.224-3.539 23.955-8h0.045v-12.5c0 4.694-10.745 8.5-24 8.5z"/>
			<path d="m1.5 32v0.5c0-0.168 0.018-0.334 0.045-0.5z"/>
			<path d="m49.455 32c0.027 0.166 0.045 0.332 0.045 0.5v-0.5z"/>
		</g>
		<g fill="#556080">
			<path d="m25.5 29c-13.255 0-24-3.806-24-8.5v12.5h0.045c0.731 4.461 11.175 8 23.955 8s23.224-3.539 23.955-8h0.045v-12.5c0 4.694-10.745 8.5-24 8.5z"/>
			<path d="m1.5 20v0.5c0-0.168 0.018-0.334 0.045-0.5z"/>
			<path d="m49.455 20c0.027 0.166 0.045 0.332 0.045 0.5v-0.5z"/>
		</g>
		<ellipse cx="25.5" cy="8.5" rx="24" ry="8.5" fill="#91bae1"/>
		<g fill="#8697cb">
			<path d="m25.5 17c-13.255 0-24-3.806-24-8.5v12.5h0.045c0.731 4.461 11.175 8 23.955 8s23.224-3.539 23.955-8h0.045v-12.5c0 4.694-10.745 8.5-24 8.5z"/>
			<path d="m1.5 8v0.5c0-0.168 0.018-0.334 0.045-0.5z"/>
			<path d="m49.455 8c0.027 0.166 0.045 0.332 0.045 0.5v-0.5z"/>
		</g>
	</g><path d="m46.147 38.986c-3.9247 7.1854-8.589 12.407-17.107 12.609-8.2761 0.19593-14.474-5.5484-18.41-12.008 3.557 4.0642 8.7351 8.7069 17.967 8.4883 11.03-0.26114 12.866-4.2506 17.551-9.0892z" fill="#6f7c91" stroke-width="1.3571"/><path d="m47.71 40.133h1.9257l-3.7484 7.8616q0.14012 1.262 0.14012 2.2061 0 2.6267-0.98152 2.6267-0.71039 0-0.71039-1.1031 0-1.4395 1.0469-3.6083-0.20558-1.3461-0.57953-3.2436-0.36456-1.8976-0.75716-2.7202-0.38326-0.8226-1.1031-0.8226-1.1778 0-1.262 1.7574h-0.33651q0-3.0847 1.8321-3.0847 1.0563 0 1.5704 1.2526 0.51415 1.2432 1.0563 5.4219z" fill="#ff7f2a" filter="url(#editing-jagged-67)" stroke-width=".050451"/><g transform="matrix(4.3938,0,0,4.3938,-68.608,-95.141)"><path transform="matrix(.033744 0 0 .033744 19.467 27.294)" d="m166 44.235c8.2353 0.25197 12.585 0.37796 13.05 0.37796h0.83549c2.0291-0.1724 3.0436 0.12599 3.0436 0.89517 0 1.1803-1.6511 1.7704-4.9532 1.7704l-10.822-0.2586c-2.2147 0.1724-3.5343 0.38459-3.9586 0.63656-3.5541 4.4161-8.3481 10.808-14.382 19.176-6.0208 8.3547-9.0312 13.341-9.0312 14.959 0 0.67633 0.76253 0.50393 2.2876-0.51721 0.92833 0 1.3925 0.12599 1.3925 0.37796 0 0.42437-0.92833 1.0609-2.785 1.9097l-3.5807 1.9097c-1.6047 1.3659-3.448 2.0489-5.5301 2.0489s-3.0369-0.51057-2.8645-1.5317c0.0796-2.0423 3.09-7.201 9.0312-15.476 5.9413-8.2753 12.095-16.146 18.46-23.613-6.1004 1.1007-10.768 1.6511-14.004 1.6511-0.33155-0.07957-0.49732-0.35144-0.49732-0.8156 0-0.47742 0.51057-1.1405 1.5317-1.9893 1.0079-0.84873 2.0887-1.2731 3.2425-1.2731 1.1405 0 2.9839-0.03979 5.5301-0.11936h6.5049c2.8778-3.8989 9.2831-12.897 19.216-26.994 4.0713-5.8484 6.107-10.682 6.107-14.502 0-5.9413-4.4097-8.9119-13.229-8.9119-6.8827 0-14.972 1.9097-24.269 5.7291-9.2833 3.8194-17.831 9.0377-25.642 15.655-5.5169 4.5753-9.8865 9.5419-13.109 14.9-3.2359 5.3445-4.8538 10.092-4.8538 14.243 0 6.7107 3.9917 10.066 11.975 10.066 0.67633 0 1.3991-0.03979 2.1683-0.11936 5.1721-0.42437 10.072-3.3751 14.701-8.8522 4.6283-5.4771 6.9425-10.085 6.9425-13.825 0-0.33155-0.0464-0.70951-0.13925-1.1339 2.2147 0.42437 3.3221 1.7373 3.3221 3.9387 0 3.647-2.3805 7.9373-7.1414 12.871-6.4452 6.6973-13.912 10.046-22.399 10.046-4.6681 0-8.3151-1.2267-10.941-3.6801-2.6391-2.4667-3.9586-5.822-3.9586-10.066 0-10.013 6.1137-20.111 18.341-30.296 8.8193-7.2147 18.195-12.672 28.128-16.372 9.9333-3.6867 18.573-5.5301 25.92-5.5301 7.334 0 12.804 1.0609 16.411 3.1828s5.4103 5.0726 5.4108 8.8522-1.6506 8.0433-4.9533 12.791c-1.9627 3.143-8.7991 12.439-20.509 27.889z" filter="url(#editing-jagged-9)" stroke-width="1.9893"/><g transform="matrix(.073025 0 0 .073025 1.6461 22.871)" filter="url(#editing-jagged-6-2)"><g transform="translate(220.42,97.18)"><path d="m11.97-1.6q-5.63 4.35-8.26 4.35-1.41 0-2.08-1.37-0.67-1.38-0.67-2.98 0-3.07 2.59-9.22 2.59-6.14 4.96-6.14 1.22 0 2.08 4.8 0.87 4.8 1.76 6.98 4.35-4.61 12.61-15.36 10.37-13.64 13.76-14.92 1.15-0.44 2.37-0.44 1.21 0 2.01 0.51t0.8 1.28q0 1.09-1.85 1.28-2.24 1.21-6.91 5.89-4.68 4.54-7.49 8.51-6.85 9.53-14.08 15.55 3.58 5.31 11.26 5.31 0.83 0 2.5-0.13 17.79-1.66 25.21-15.42 3.01-5.5 3.01-10.88t-3.9-9.66q-3.14-3.52-6.82-4.36-3.68-0.83-7.52-0.83-9.85 0-18.17 4.55-8.77 4.8-8.77 10.75 0 1.6 0.86 2.62 0.87 1.03 1.19 1.15h-0.39q-1.66-0.32-2.94-1.66-1.41-1.66-1.41-3.52 0-6.4 8.03-11.01t18.85-4.61q4.99 0 10.24 1.16 5.25 1.15 9.54 5.5 4.92 5.12 4.92 11.58 0 4.8-2.81 9.92-4.87 8.84-14.53 12.93-7.74 3.27-16.7 3.27t-13.25-5.38zm-8.71-0.26q0 1.99 0.77 3.46 2.75-1.22 6.66-5.06-1.86-3.07-2.34-4.83t-0.67-4.64q-4.42 6.34-4.42 11.07zm9.16-17.92q0.06 0 0.12-0.06 0 0.13-0.03 0.13t-0.09-0.07z"/></g></g></g></g></svg>
