<svg width="162.33" height="80" preserveAspectRatio="xMidYMid" version="1.1" viewBox="61.959 5.6 162.33 80" xmlns="http://www.w3.org/2000/svg">
 <defs>
  <filter id="editing-jagged" x="0" y="0" width="1" height="1">
   <feTurbulence baseFrequency="0" result="turb" seed="1"/>
   <feDisplacementMap in="SourceGraphic" in2="turb"/>
  </filter>
  <filter id="editing-jagged-6" x="0" y="0" width="1" height="1">
   <feTurbulence baseFrequency="0" result="turb" seed="1"/>
   <feDisplacementMap in="SourceGraphic" in2="turb"/>
  </filter>
 </defs>
 <g transform="matrix(.41442 0 0 .41442 97.278 37.009)" fill="#6f7c91" filter="url(#editing-jagged)">
  <g transform="matrix(1.9893 0 0 1.9893 84.31 74.977)">
   <path d="m4.5378-74.799h14.57l-28.363 59.482q1.0602 9.5487 1.0602 16.692 0 19.875-7.4267 19.875-5.3752 0-5.3752-8.3462 0-10.892 7.9214-27.302-1.5555-10.185-4.385-24.543-2.7585-14.358-5.7291-20.582-2.9-6.2242-8.3462-6.2242-8.912 0-9.5487 13.297h-2.5462q0-23.341 13.863-23.341 7.9924 0 11.883 9.4777 3.8903 9.4071 7.9928 41.025z" fill="#d4aa00" stroke-width=".38174"/>
   <path d="m33.79-16.06q6.21 0.19 6.56 0.19t0.42 0q1.53-0.13 1.53 0.45 0 0.89-2.49 0.89l-5.44-0.13q-1.67 0.13-1.99 0.32-2.68 3.33-7.23 9.64-4.54 6.3-4.54 7.52 0 0.51 1.15-0.26 0.7 0 0.7 0.19 0 0.32-1.4 0.96l-1.8 0.96q-1.21 1.03-2.78 1.03t-1.44-0.77q0.06-1.54 4.54-7.78t9.28-11.87q-4.6 0.83-7.04 0.83-0.25-0.06-0.25-0.41 0-0.36 0.77-1 0.76-0.64 1.63-0.64 0.86 0 2.78-0.06h3.27q2.17-2.94 9.66-13.57 3.07-4.41 3.07-7.29 0-4.48-6.65-4.48-5.19 0-12.2 2.88-7 2.88-12.89 7.87-4.16 3.45-6.59 7.49-2.44 4.03-2.44 7.16 0 5.06 6.02 5.06 0.51 0 1.09-0.06 3.9-0.32 7.39-4.45t3.49-6.95q0-0.25-0.07-0.57 1.67 0.32 1.67 1.98 0 2.75-3.59 6.47-4.86 5.05-11.26 5.05-3.52 0-5.5-1.85-1.99-1.86-1.99-5.06 0-7.55 9.22-15.23 6.65-5.44 14.14-8.23 7.49-2.78 13.03-2.78 5.53 0 8.25 1.6t2.72 4.45-2.49 6.43q-1.48 2.37-10.31 14.02zm23.36 2.49q0 2.24-4.29 7.49-5.05 6.21-8.64 6.21h-1.02q-1.66 0-2.62-1.73-0.77-1.22-0.77-2.69 0-3.84 5.6-10.78 5.6-6.95 9.05-6.95 3.27 0 3.27 3.46 0 0.9-0.32 2.3 0.06 0.2 1.21 0.2 1.16 0 3.52-1.22-0.06 1.09-5.05 3.14 0.06 0.25 0.06 0.57zm-4.16-3.33q-2.17 0-6.17 5.12t-4 7.56q0 2.43 1.53 2.43 2.75 0 6.98-4.99 4.22-5 4.22-7.17-1.02-0.58-2.56-2.95zm18.5 17.22q-4.8 0-4.8-5.31 0-2.69 1.41-5.89 1.4-3.2 3.07-5.38-0.32 0.07-0.83 0.07-1.54 0-2.56-2.18l-4.74 6.15q-3.97 4.92-4.61 4.92-0.32 0-0.32-0.25 0-0.64 1.09-1.86 5.57-6.46 7.87-10.94 1.47-5.57 3.71-5.57 1.48 0 1.48 1.28t-1.6 3.26l-1.54 2.05q0 1.35 1.98 1.35 1.16 0 2.56-0.84l1.67-1.02q0.13-0.06 0.64-0.06t1.09 0.64q0.57 0.64 0.38 1.15l-4.42 5.57q-4.09 5.24-4.09 8.28t2.81 3.04q2.95 0 7.24-3.13 2.56-1.86 4.67-4.16 1.98-2.31 2.17-2.31 0.45 0 0.45 0.48t-0.57 1.12l-2.05 2.31q-1.73 1.79-3.84 3.45-5.06 3.78-8.32 3.78zm25.28 0.45q-5.06 0-8.58-8-0.89 1.34-4.03 7.55-2.3-0.9-2.3-2.43 0-2.75 8.25-15.11 8.26-12.35 11.33-14.52 0.26-0.2 1.02-0.2 1.99 0 1.99 1.03 0 0.51-4.45 5.76t-4.96 6.33q5.82-3 9.28-3 1.98 0 3.39 1.6 1.35 1.34 1.35 2.75 0 0.19 0 0.38-0.52 3.65-5.12 6.02-3.72 1.98-6.92 1.98t-4.48-0.83q-0.38-0.06-0.6 0.19-0.23 0.26-0.1 0.64 1.79 7.94 5.95 7.94 2.18 0 5.6-2.43 3.43-2.44 7.14-6.85 0.45-0.45 0.8-0.45t0.35 0.35-0.45 0.99q-3.45 4.23-6.53 6.66-4.67 3.65-7.93 3.65zm9.21-19.59q0-0.51-0.57-1.02-0.58-0.51-1.22-0.51-3.45 0-8.29 2.88-4.83 2.88-5.92 6.53 0.58 0 3.08 0.19 2.88 0 7.55-2.37 5.37-2.69 5.37-5.7z" fill="#6f7c91"/>
   <g transform="matrix(1.0879 0 0 1.0879 -326.07 -103.59)" fill="#6f7c91" filter="url(#editing-jagged-6)">
    <g transform="translate(220.42 97.18)" fill="#6f7c91">
     <path d="m11.97-1.6q-5.63 4.35-8.26 4.35-1.41 0-2.08-1.37-0.67-1.38-0.67-2.98 0-3.07 2.59-9.22 2.59-6.14 4.96-6.14 1.22 0 2.08 4.8 0.87 4.8 1.76 6.98 4.35-4.61 12.61-15.36 10.37-13.64 13.76-14.92 1.15-0.44 2.37-0.44 1.21 0 2.01 0.51t0.8 1.28q0 1.09-1.85 1.28-2.24 1.21-6.91 5.89-4.68 4.54-7.49 8.51-6.85 9.53-14.08 15.55 3.58 5.31 11.26 5.31 0.83 0 2.5-0.13 17.79-1.66 25.21-15.42 3.01-5.5 3.01-10.88t-3.9-9.66q-3.14-3.52-6.82-4.36-3.68-0.83-7.52-0.83-9.85 0-18.17 4.55-8.77 4.8-8.77 10.75 0 1.6 0.86 2.62 0.87 1.03 1.19 1.15h-0.39q-1.66-0.32-2.94-1.66-1.41-1.66-1.41-3.52 0-6.4 8.03-11.01t18.85-4.61q4.99 0 10.24 1.16 5.25 1.15 9.54 5.5 4.92 5.12 4.92 11.58 0 4.8-2.81 9.92-4.87 8.84-14.53 12.93-7.74 3.27-16.7 3.27t-13.25-5.38zm-8.71-0.26q0 1.99 0.77 3.46 2.75-1.22 6.66-5.06-1.86-3.07-2.34-4.83t-0.67-4.64q-4.42 6.34-4.42 11.07zm9.16-17.92q0.06 0 0.12-0.06 0 0.13-0.03 0.13t-0.09-0.07z" fill="#6f7c91"/>
    </g>
   </g>
  </g>
 </g>
</svg>
