<svg width="110.7" height="125.24" version="1.1" viewBox="0 0 7.8876 8.9216" xml:space="preserve" xmlns="http://www.w3.org/2000/svg">
<g transform="translate(0 -.00015)"><g stroke-width=".149"><g transform="translate(7.9501e-5,-3.0232e-4)"><path d="m7.1182 1.1962c-0.1085-0.66738-1.6586-1.1966-3.5558-1.1966s-3.4472 0.52918-3.5558 1.1966h-0.0066795v5.534h0.0066795c0.1085 0.66723 1.6587 1.1966 3.5558 1.1966s3.4472-0.52933 3.5558-1.1966h0.00668v-5.534z" fill="#545e73"/><path d="m7.1535e-5 4.7859v0.074785c0-0.025128 0.0026718-0.049956 0.0066795-0.074785z" fill="#38454f"/><path d="m7.1182 4.7859c4e-3 0.024829 0.00668 0.049657 0.00668 0.074785v-0.074785z" fill="#38454f"/><path d="m7.1535e-5 2.991v0.074785c0-0.025128 0.0026718-0.049956 0.0066795-0.074785z" fill="#556080"/><path d="m7.1182 2.991c4e-3 0.024829 0.00668 0.049657 0.00668 0.074785v-0.074785z" fill="#556080"/><path d="m7.1535e-5 1.1962v0.074785c0-0.025128 0.0026718-0.049956 0.0066795-0.074785z" fill="#8697cb"/><path d="m7.1182 1.1962c4e-3 0.024829 0.00668 0.049657 0.00668 0.074785v-0.074785z" fill="#8697cb"/></g><ellipse cx="3.5625" cy="1.2708" rx="3.5624" ry="1.2713" fill="#06f"/><path d="m3.5625 6.1317c-1.9674 0-3.5624-0.56926-3.5624-1.2713v1.8696h0.0066795c0.1085 0.66723 1.6587 1.1966 3.5558 1.1966s3.4472-0.52933 3.5558-1.1966h0.00668v-1.8696c0 0.70208-1.595 1.2713-3.5624 1.2713z" fill="#003380"/><path d="m3.5625 4.3369c-1.9674 0-3.5624-0.56926-3.5624-1.2713v1.8696h0.0066795c0.1085 0.66723 1.6587 1.1966 3.5558 1.1966s3.4472-0.52933 3.5558-1.1966h0.00668v-1.8696c0 0.70208-1.595 1.2713-3.5624 1.2713z" fill="#04a"/><path d="m3.5625 2.5421c-1.9674 0-3.5624-0.56926-3.5624-1.2713v1.8696h0.0066795c0.1085 0.66723 1.6587 1.1966 3.5558 1.1966s3.4472-0.52933 3.5558-1.1966h0.00668v-1.8696c0 0.70208-1.595 1.2713-3.5624 1.2713z" fill="#0055d4"/></g><g fill="#025"><path d="m7.5928 6.3073h-0.16917c-0.13801 0-0.25376-0.11909-0.25376-0.26044 0-0.071231 0.03005-0.13578 0.083474-0.18364l0.10907-0.10685c0.10796-0.10685 0.10796-0.28159 0-0.38843l-0.2482-0.24597c-0.048972-0.048971-0.12132-0.077909-0.19477-0.077909-0.073457 0-0.14469 0.028938-0.19477 0.077909l-0.10462 0.10462c-0.050084 0.055649-0.11686 0.0857-0.18921 0.0857-0.14246 0-0.26155-0.11575-0.26155-0.25265v-0.17029c0-0.15025-0.12132-0.27936-0.27268-0.27936h-0.33835c-0.15137 0-0.27157 0.12799-0.27157 0.27936v0.16917c0 0.1369-0.11909 0.25265-0.26155 0.25265-0.071231 0-0.1369-0.03005-0.18476-0.082361l-0.10796-0.10685c-0.048971-0.050084-0.12132-0.077909-0.19477-0.077909-0.073457 0-0.14469 0.028938-0.19477 0.077909l-0.25042 0.24486c-0.10685 0.10685-0.10685 0.28159 0 0.38732l0.10462 0.10462c0.055649 0.050084 0.086813 0.11686 0.086813 0.18809 0 0.14246-0.11575 0.26044-0.25376 0.26044h-0.16917c-0.15248 0-0.28047 0.11909-0.28047 0.27046v0.33835c0 0.15025 0.12799 0.27046 0.28047 0.27046h0.16917c0.13801 0 0.25376 0.11909 0.25376 0.26044 0 0.071231-0.031163 0.13801-0.086813 0.18809l-0.10462 0.10351c-0.10685 0.10685-0.10685 0.28159 0 0.38732l0.2482 0.24708c0.048971 0.050082 0.12132 0.077909 0.19477 0.077909 0.073457 0 0.14469-0.028938 0.19477-0.077909l0.10796-0.10685c0.046745-0.052308 0.11352-0.082361 0.18476-0.082361 0.14246 0 0.26155 0.11575 0.26155 0.25265v0.16917c0 0.15025 0.1202 0.27936 0.27268 0.27936h0.33835c0.15137 0 0.27157-0.12799 0.27157-0.27936v-0.16917c0-0.1369 0.11909-0.25265 0.26155-0.25265 0.071231 0 0.13801 0.031164 0.18921 0.0857l0.10462 0.10462c0.050084 0.048972 0.12132 0.077909 0.19477 0.077909s0.14469-0.028938 0.19477-0.077909l0.2482-0.24708c0.10685-0.10685 0.10685-0.28159 0-0.38843l-0.10907-0.10685c-0.053424-0.047858-0.083474-0.11352-0.083474-0.18364 0-0.14246 0.11575-0.26044 0.25376-0.26044h0.16917c0.15137 0 0.25933-0.11909 0.25933-0.27046v-0.33946c0.00223-0.15137-0.10573-0.27046-0.2571-0.27046z" stroke="#025" stroke-width=".075242"/><circle cx="5.7152" cy="6.7475" r=".85479" stroke="#04a" stroke-width=".071725"/></g><path d="m6.1858 5.5413h0.40816l-0.79448 1.679q0.029696 0.26953 0.029696 0.47116 0 0.561-0.20805 0.561-0.15058 0-0.15058-0.23559 0-0.30744 0.2219-0.77062-0.04357-0.2875-0.12283-0.69274-0.07727-0.40528-0.16048-0.58097-0.08123-0.17569-0.23381-0.17569-0.24965 0-0.26748 0.37534h-0.071325q0-0.65881 0.38831-0.65881 0.22389 0 0.33285 0.26753 0.10898 0.26552 0.22389 1.158z" fill="#ff7f2a" filter="url(#editing-jagged-67)" stroke-width=".010734"/></g></svg>
