<svg width="73.036" height="46.943" preserveAspectRatio="xMidYMid" version="1.1" viewBox="61.959 5.6 73.036 46.943" xmlns="http://www.w3.org/2000/svg">
 <g transform="translate(-106)" fill="#08a">
  <path class="st0" d="m176.18 20.679c4.1784 0 7.0374 2.6093 7.9527 6.1458h3.7267c2.1278-2.0327 3.3522-4.8917 4.4875-7.5485 2.4607-5.7357 4.5945-10.728 12.821-9.1058 0.7073-2.6331 3.1086-4.5707 5.9675-4.5707 3.4117 0 6.1814 2.7638 6.1814 6.1755s-2.7698 6.1815-6.1814 6.1815c-2.4607 0-4.5826-1.4384-5.5811-3.5246l-0.0178 0.07132c-0.89155-0.23775-1.688-0.35662-2.4012-0.37445-4.0358-0.08915-5.4147 3.1204-6.972 6.7639-0.0951 0.21992-0.1902 0.43983-0.2853 0.6657-0.76079 1.7593-1.5751 3.5662-2.6866 5.2602h34.254v-5.6822l1.1293 0.67164 12.422 7.3702-13.558 8.0418v-6.2468h-26.134c1.1352 1.694 1.9674 3.5127 2.7341 5.284 0.11887 0.26747 0.2318 0.54088 0.35068 0.80834 1.5751 3.6851 2.9718 6.9304 7.1206 6.758 0.55871-0.02377 1.165-0.10699 1.8307-0.26152v-2.9362c0-0.49333 0.40417-0.89156 0.89155-0.89156h10.841c0.49332 0 0.89155 0.40417 0.89155 0.89156v11.026c0 0.49333-0.39823 0.89156-0.89155 0.89156h-10.841c-0.48738 0-0.89155-0.40417-0.89155-0.89156v-3.8515c-8.1726 1.587-10.312-3.3939-12.761-9.1176-1.1709-2.7282-2.431-5.6703-4.6658-7.7149h-11.774c-0.92127 3.5365-3.7742 6.1458-7.9527 6.1458-4.1903 0-8.2261-3.6792-8.2261-8.2142 0-4.535 4.0358-8.2201 8.2201-8.2201z" clip-rule="evenodd" fill="#08a" fill-rule="evenodd" stroke-width=".59437"/>
 </g>
</svg>
