<svg width="256.38" height="120" preserveAspectRatio="xMidYMid" version="1.1" viewBox="61.959 5.6 256.38 120" xmlns="http://www.w3.org/2000/svg">
 <defs>
  <linearGradient id="linearGradient4-4-0" x1="3.2362" x2="256.31" y1="-17.608" y2="-17.781" gradientTransform="translate(46.306,77.81)" gradientUnits="userSpaceOnUse">
   <stop stop-color="#5a1a80" offset="0"/>
   <stop stop-color="#e10057" offset=".25"/>
   <stop stop-color="#ffb200" offset=".5"/>
   <stop stop-color="#e10057" offset=".74576"/>
   <stop stop-color="#5a1a80" offset="1"/>
  </linearGradient>
  <filter id="editing-jagged-46-1" x="0" y="0" width="1" height="1">
   <feTurbulence baseFrequency="0" result="turb" seed="1"/>
   <feDisplacementMap in="SourceGraphic" in2="turb"/>
  </filter>
 </defs>
 <g transform="translate(1.2e-7,14)">
  <path d="m143.09 111.3c-0.4867-0.22515-1.2168-0.76989-1.6223-1.2106-0.67947-0.7382-0.73546-1.0135-0.7125-3.5035 0.021-2.2834 0.18569-3.169 1.062-5.7125 1.7128-4.971 4.3774-8.721 8.5304-12.005 4.4477-3.517 9.9965-5.9422 16.884-7.3793 10.893-2.2729 20.112-7.3068 29.498-16.106 2.6284-2.464 7.5294-8.0435 8.789-10.006 1.8316-2.853 0.33394-6.2735-2.9389-6.7124-1.9847-0.26621-2.7932 0.29873-6.3758 4.4549-9.7507 11.312-19.223 17.362-30.971 19.782-3.0618 0.63078-7.8386 2.0992-10.566 3.2478-0.46087 0.19411-0.51619 0.01259-0.51619-1.6936 0-4.3033 2.7053-11.486 6.1602-16.356 1.6158-2.2776 4.9463-5.9834 5.3773-5.9834 0.14363 0 0.26114 0.59077 0.26114 1.3128 0 2.6695 1.2736 7.3688 3.0217 11.15 0.65636 1.4195 1.2737 2.58 1.3718 2.5787 0.0983-0.0012 0.48188-1.0963 0.85276-2.4335 0.99843-3.5999 3.7945-9.0148 6.5296-12.644 3.9575-5.2528 8.8542-9.4024 15.64-13.253 9.1846-5.2126 17.797-13.724 21.622-21.368 3.9068-7.8078 4.4746-15.49 1.7474-23.644-0.75665-2.2621-0.77074-2.3941-0.2245-2.1018 1.0672 0.57113 7.1212 6.8335 8.9198 9.2269 4.7845 6.3664 7.7159 12.556 9.1505 19.32 0.7362 3.4715 0.73548 10.693-9.9e-4 14.159-1.0063 4.733-2.8913 9.4628-5.4366 13.643l-1.2126 1.991h1.0109c3.4361 0 8.169-3.6955 13.033-10.176l2.2139-2.9497-0.20301 2.6548c-1.4714 19.243-8.8892 36.672-19.026 44.706-5.6221 4.4556-12.779 7.0555-19.432 7.0597l-1.867 9.9e-4 0.19306 0.95865c0.34919 1.7339 1.6139 3.9716 2.9303 5.1851 1.5905 1.466 3.2125 1.9517 5.6213 1.6829 2.3143-0.25821 1.9648 0.0504-1.9134 1.6895-7.4149 3.1338-15.234 4.6952-23.598 4.7126-8.5716 0.0179-15.176-1.6637-20.353-5.1812-1.7748-1.2061-4.8324-4.1496-6.0914-5.864l-1.0197-1.3885-1.5326 0.92971c-0.84296 0.51135-2.5396 1.9326-3.7703 3.1584-2.6978 2.687-3.9343 5.0072-4.5772 8.5886-0.51635 2.8766-1.1269 4.2724-2.2217 5.0785-0.99632 0.73369-3.0907 0.93255-4.237 0.40231z" fill="#373e48" stroke-width=".29497"/>
  <path transform="matrix(.98598 0 0 .97366 15.415 2.7875)" d="m66.596 78.71q-9.15 0-14.27-4.77t-5.12-13.92 5.12-13.92 14.2-4.77q4.42 0 8.45 1.22 4.03 1.21 6.27 2.75v12.67h-11v-1.15q0-2.11-0.9-3.11-0.9-0.99-2.82-0.99-3.71 0-3.71 4.1v5.5q0 4.99 5.7 4.99 5.31 0 12.35-1.15v10.05q-2.18 0.96-6.11 1.73-3.94 0.77-8.16 0.77zm44.16-37.38q1.28 0 2.43 0.26 1.15 0.25 1.92 0.64v12.22q-2.62-1.09-5.63-1.09-4.03 0-6.21 2.11-2.18 2.12-2.18 6.28v5.56h5.76v10.5h-23.29v-10.5h2.81v-14.59h-2.81v-10.49h17.53v4.67q1.8-2.69 4.1-4.13t5.57-1.44zm27.13 0.9h17.8v10.49h-2.44l-8.38 22.21q-3.14 8.38-7.17 12.58-4.03 4.19-10.62 4.19-2.69 0-5.44-0.55-2.75-0.54-4.99-1.5v-11.58h8.83v0.64q0 1.6 1.66 1.6 1.47 0 2.24-1.41l-10.11-26.18h-2.43v-10.49h19.01v10.49h-2.18l3.33 9.99 3.07-9.99h-2.18zm81.54 25.08h2.82v10.5h-20.23v-10.5h2.69v-10.49q0-2.11-0.9-3.11-0.89-0.99-2.68-0.99-3.84 0-3.84 4.1v10.49h2.68v10.5h-20.09v-10.5h2.69v-10.49q0-2.11-0.9-3.11-0.9-0.99-2.69-0.99-3.84 0-3.84 4.1v10.49h2.69v10.5h-20.22v-10.5h2.81v-14.59h-2.81v-10.49h17.53v4.99q4.61-5.89 11.52-5.89 3.91 0 6.37 1.82 2.46 1.83 3.49 5.16 2.3-3.33 5.28-5.12 2.97-1.8 7.01-1.8 5.31 0 7.96 3.33 2.66 3.33 2.66 9.15zm23.94 11.4q-9.09 0-14.21-4.77t-5.12-13.92 5.12-13.92 14.21-4.77q9.21 0 14.27 4.83 5.05 4.83 5.05 13.86 0 9.15-5.12 13.92t-14.2 4.77zm0-11.4q1.85 0 2.78-0.99t0.93-3.1v-6.4q0-2.11-0.93-3.11-0.93-0.99-2.78-0.99-1.86 0-2.79 0.99-0.93 1-0.93 3.11v6.4q0 2.11 0.93 3.1t2.79 0.99zm61.05 0h2.82v10.5h-20.23v-10.5h2.69v-10.49q0-2.11-0.89-3.11-0.9-0.99-2.69-0.99-3.84 0-3.84 4.1v10.49h2.69v10.5h-20.23v-10.5h2.82v-14.59h-2.82v-10.49h17.54v4.99q4.61-5.89 11.52-5.89 5.31 0 7.97 3.33 2.65 3.33 2.65 9.15z" fill="url(#linearGradient4-4-0)" filter="url(#editing-jagged-46-1)"/>
 </g>
</svg>
