<svg width="256.38" height="100" preserveAspectRatio="xMidYMid" version="1.1" viewBox="61.959 5.6 256.38 100" xmlns="http://www.w3.org/2000/svg">
 <defs>
  <linearGradient id="linearGradient4-4-0" x1="3.2362" x2="256.31" y1="-17.608" y2="-17.781" gradientTransform="translate(46.306,77.81)" gradientUnits="userSpaceOnUse">
   <stop stop-color="#5a1a80" offset="0"/>
   <stop stop-color="#e10057" offset=".25"/>
   <stop stop-color="#ffb200" offset=".5"/>
   <stop stop-color="#e10057" offset=".74576"/>
   <stop stop-color="#5a1a80" offset="1"/>
  </linearGradient>
  <filter id="editing-jagged-46-1" x="0" y="0" width="1" height="1">
   <feTurbulence baseFrequency="0" result="turb" seed="1"/>
   <feDisplacementMap in="SourceGraphic" in2="turb"/>
  </filter>
 </defs>
 <g transform="translate(-.00017188 .00050858)">
  <path d="m148.7 105.35c-0.40559-0.18763-1.014-0.64158-1.3519-1.0088-0.56623-0.61516-0.61289-0.84458-0.59376-2.9196 0.0175-1.9028 0.15475-2.6408 0.88503-4.7604 1.4273-4.1425 3.6478-7.2675 7.1087-10.004 3.7064-2.9308 8.3304-4.9518 14.07-6.1494 9.0771-1.8941 16.76-6.089 24.582-13.422 2.1903-2.0533 6.2745-6.7029 7.3242-8.3381 1.5263-2.3775 0.27828-5.2279-2.4491-5.5937-1.6539-0.22184-2.3277 0.24894-5.3132 3.7124-8.1256 9.4263-16.019 14.468-25.809 16.485-2.5515 0.52565-6.5322 1.7493-8.8049 2.7065-0.38406 0.16176-0.43016 0.01049-0.43016-1.4113 0-3.5861 2.2544-9.5716 5.1335-13.63 1.3465-1.898 4.1219-4.9862 4.4811-4.9862 0.11969 0 0.21762 0.49231 0.21762 1.094 0 2.2246 1.0613 6.1407 2.5181 9.2913 0.54697 1.1829 1.0614 2.15 1.1432 2.1489 0.0818-1e-3 0.40157-0.91358 0.71064-2.0279 0.83202-2.9999 3.1621-7.5123 5.4413-10.537 3.2979-4.3773 7.3785-7.8353 13.033-11.044 7.6538-4.3438 14.831-11.437 18.018-17.807 3.2557-6.5065 3.7288-12.908 1.4562-19.703-0.63054-1.8851-0.64228-1.9951-0.18709-1.7515 0.88932 0.47594 5.9343 5.6946 7.4332 7.6891 3.9871 5.3053 6.4299 10.463 7.6254 16.1 0.6135 2.8929 0.6129 8.9107-1e-3 11.799-0.83861 3.9442-2.4094 7.8857-4.5305 11.369l-1.0105 1.6592h0.84243c2.8634 0 6.8075-3.0796 10.861-8.4803l1.8449-2.4581-0.16917 2.2123c-1.2262 16.036-7.4077 30.56-15.855 37.255-4.6851 3.713-10.649 5.8796-16.193 5.8831l-1.5558 1e-3 0.16089 0.79887c0.29099 1.4449 1.3449 3.3097 2.4419 4.3209 1.3254 1.2217 2.6771 1.6264 4.6844 1.4024 1.9286-0.21518 1.6373 0.04199-1.5945 1.4079-6.1791 2.6115-12.695 3.9127-19.665 3.9272-7.143 0.0149-12.647-1.3864-16.961-4.3177-1.479-1.0051-4.027-3.458-5.0762-4.8867l-0.84974-1.1571-1.2772 0.77476c-0.70246 0.42612-2.1163 1.6105-3.1419 2.632-2.2482 2.2392-3.2786 4.1727-3.8143 7.1572-0.43029 2.3972-0.93909 3.5603-1.8514 4.2321-0.83026 0.61141-2.5756 0.77713-3.5308 0.33526z" fill="#373e48" stroke-width=".24581"/>
  <path transform="matrix(.98598 0 0 .97366 15.415 2.787)" d="m66.596 78.71q-9.15 0-14.27-4.77t-5.12-13.92 5.12-13.92 14.2-4.77q4.42 0 8.45 1.22 4.03 1.21 6.27 2.75v12.67h-11v-1.15q0-2.11-0.9-3.11-0.9-0.99-2.82-0.99-3.71 0-3.71 4.1v5.5q0 4.99 5.7 4.99 5.31 0 12.35-1.15v10.05q-2.18 0.96-6.11 1.73-3.94 0.77-8.16 0.77zm44.16-37.38q1.28 0 2.43 0.26 1.15 0.25 1.92 0.64v12.22q-2.62-1.09-5.63-1.09-4.03 0-6.21 2.11-2.18 2.12-2.18 6.28v5.56h5.76v10.5h-23.29v-10.5h2.81v-14.59h-2.81v-10.49h17.53v4.67q1.8-2.69 4.1-4.13t5.57-1.44zm27.13 0.9h17.8v10.49h-2.44l-8.38 22.21q-3.14 8.38-7.17 12.58-4.03 4.19-10.62 4.19-2.69 0-5.44-0.55-2.75-0.54-4.99-1.5v-11.58h8.83v0.64q0 1.6 1.66 1.6 1.47 0 2.24-1.41l-10.11-26.18h-2.43v-10.49h19.01v10.49h-2.18l3.33 9.99 3.07-9.99h-2.18zm81.54 25.08h2.82v10.5h-20.23v-10.5h2.69v-10.49q0-2.11-0.9-3.11-0.89-0.99-2.68-0.99-3.84 0-3.84 4.1v10.49h2.68v10.5h-20.09v-10.5h2.69v-10.49q0-2.11-0.9-3.11-0.9-0.99-2.69-0.99-3.84 0-3.84 4.1v10.49h2.69v10.5h-20.22v-10.5h2.81v-14.59h-2.81v-10.49h17.53v4.99q4.61-5.89 11.52-5.89 3.91 0 6.37 1.82 2.46 1.83 3.49 5.16 2.3-3.33 5.28-5.12 2.97-1.8 7.01-1.8 5.31 0 7.96 3.33 2.66 3.33 2.66 9.15zm23.94 11.4q-9.09 0-14.21-4.77t-5.12-13.92 5.12-13.92 14.21-4.77q9.21 0 14.27 4.83 5.05 4.83 5.05 13.86 0 9.15-5.12 13.92t-14.2 4.77zm0-11.4q1.85 0 2.78-0.99t0.93-3.1v-6.4q0-2.11-0.93-3.11-0.93-0.99-2.78-0.99-1.86 0-2.79 0.99-0.93 1-0.93 3.11v6.4q0 2.11 0.93 3.1t2.79 0.99zm61.05 0h2.82v10.5h-20.23v-10.5h2.69v-10.49q0-2.11-0.89-3.11-0.9-0.99-2.69-0.99-3.84 0-3.84 4.1v10.49h2.69v10.5h-20.23v-10.5h2.82v-14.59h-2.82v-10.49h17.54v4.99q4.61-5.89 11.52-5.89 5.31 0 7.97 3.33 2.65 3.33 2.65 9.15z" fill="url(#linearGradient4-4-0)" filter="url(#editing-jagged-46-1)"/>
 </g>
</svg>
