<?xml version="1.0" encoding="UTF-8" standalone="no"?>
<svg
   width="276.82794"
   height="68.765862"
   preserveAspectRatio="xMidYMid"
   version="1.1"
   viewBox="61.959 5.6 276.82794 68.765863"
   id="svg4"
   xmlns:xlink="http://www.w3.org/1999/xlink"
   xmlns="http://www.w3.org/2000/svg"
   xmlns:svg="http://www.w3.org/2000/svg">
  <defs
     id="defs3">
    <linearGradient
       id="linearGradient2">
      <stop
         stop-color="#ffb200"
         offset="0"
         id="stop1" />
      <stop
         stop-color="#e10057"
         offset=".51977"
         id="stop2" />
      <stop
         stop-color="#5a1a80"
         offset="1"
         id="stop3" />
    </linearGradient>
    <filter
       id="editing-jagged"
       x="0"
       y="0"
       width="1"
       height="1">
      <feTurbulence
         baseFrequency="0"
         result="turb"
         seed="1"
         id="feTurbulence3" />
      <feDisplacementMap
         in="SourceGraphic"
         in2="turb"
         id="feDisplacementMap3"
         scale="0"
         xChannelSelector="A"
         yChannelSelector="A" />
    </filter>
    <linearGradient
       id="linearGradient3"
       x1="119.98"
       x2="380.01001"
       y1="88.889999"
       y2="88.889999"
       gradientUnits="userSpaceOnUse"
       xlink:href="#linearGradient2" />
    <linearGradient
       id="linearGradient4"
       x1="11.504"
       x2="253.09"
       y1="-29.780001"
       y2="-4.9204001"
       gradientUnits="userSpaceOnUse"
       xlink:href="#linearGradient2" />
    <filter
       id="editing-jagged-4"
       x="0"
       y="0"
       width="1"
       height="1">
      <feTurbulence
         baseFrequency="0"
         result="turb"
         seed="1"
         id="feTurbulence3-9" />
      <feDisplacementMap
         in="SourceGraphic"
         in2="turb"
         id="feDisplacementMap3-8"
         scale="0"
         xChannelSelector="A"
         yChannelSelector="A" />
    </filter>
    <linearGradient
       id="linearGradient3-2"
       x1="119.98"
       x2="380.01001"
       y1="88.889999"
       y2="88.889999"
       gradientUnits="userSpaceOnUse"
       xlink:href="#linearGradient2" />
    <filter
       id="editing-jagged-46"
       x="0"
       y="0"
       width="1"
       height="1">
      <feTurbulence
         baseFrequency="0"
         result="turb"
         seed="1"
         id="feTurbulence3-3" />
      <feDisplacementMap
         in="SourceGraphic"
         in2="turb"
         id="feDisplacementMap3-7"
         scale="0"
         xChannelSelector="A"
         yChannelSelector="A" />
    </filter>
    <linearGradient
       id="linearGradient4-4"
       x1="11.504"
       x2="253.09"
       y1="-29.780001"
       y2="-4.9204001"
       gradientUnits="userSpaceOnUse"
       xlink:href="#linearGradient2"
       gradientTransform="translate(1.8084097,-5.0445042)" />
    <linearGradient
       xlink:href="#linearGradient2"
       id="linearGradient5"
       gradientUnits="userSpaceOnUse"
       x1="119.98"
       y1="88.889999"
       x2="380.01001"
       y2="88.889999" />
  </defs>
  <style
     id="style4">text {&#10;  font-size: 64px;&#10;  font-family: Arial Black;&#10;  dominant-baseline: central;&#10;  text-anchor: middle;&#10;}</style>
  <g
     transform="translate(69.457971,51.277931)"
     fill="url(#linearGradient3)"
     id="g3"
     style="fill:url(#linearGradient5);filter:url(#editing-jagged-46)">
    <g
       id="g6">
      <rect
         style="fill:#241c1f;stroke:#ffffff;stroke-width:1.39508"
         id="rect4"
         width="324.22726"
         height="78.854874"
         x="-29.390223"
         y="-55.766941"
         ry="19.645855" />
      <path
         d="m 22.09841,-4.1445042 q -9.15,0 -14.2700003,-4.77 -5.12,-4.7699998 -5.12,-13.9199998 0,-9.15 5.12,-13.92 5.1200003,-4.77 14.2000003,-4.77 4.42,0 8.45,1.22 4.03,1.21 6.27,2.75 v 12.67 h -11 v -1.15 q 0,-2.11 -0.9,-3.11 -0.9,-0.99 -2.82,-0.99 -3.71,0 -3.71,4.1 v 5.5 q 0,4.99 5.7,4.99 5.31,0 12.35,-1.15 v 10.0499998 q -2.18,0.96 -6.11,1.73 -3.94,0.77 -8.16,0.77 z m 44.16,-37.3799998 q 1.28,0 2.43,0.26 1.15,0.25 1.92,0.64 v 12.22 q -2.62,-1.09 -5.63,-1.09 -4.03,0 -6.21,2.11 -2.18,2.12 -2.18,6.28 v 5.56 h 5.76 v 10.4999998 h -23.29 V -15.544504 h 2.81 v -14.59 h -2.81 v -10.49 h 17.53 v 4.67 q 1.8,-2.69 4.1,-4.13 2.3,-1.44 5.57,-1.44 z m 27.13,0.9 h 17.8 v 10.49 h -2.44 l -8.38,22.2099998 q -3.14,8.37999996 -7.17,12.58 -4.03,4.19 -10.62,4.19 -2.69,0 -5.44,-0.55 -2.75,-0.54 -4.99,-1.5 v -11.58 h 8.83 v 0.64 q 0,1.6 1.66,1.6 1.47,0 2.24,-1.41 l -10.11,-26.1799998 h -2.43 v -10.49 h 19.01 v 10.49 h -2.18 l 3.33,9.99 3.07,-9.99 h -2.18 z m 81.54,25.08 h 2.82 v 10.4999998 h -20.23 V -15.544504 h 2.69 v -10.49 q 0,-2.11 -0.9,-3.11 -0.89,-0.99 -2.68,-0.99 -3.84,0 -3.84,4.1 v 10.49 h 2.68 v 10.4999998 h -20.09 V -15.544504 h 2.69 v -10.49 q 0,-2.11 -0.9,-3.11 -0.9,-0.99 -2.69,-0.99 -3.84,0 -3.84,4.1 v 10.49 h 2.69 v 10.4999998 h -20.22 V -15.544504 h 2.81 v -14.59 h -2.81 v -10.49 h 17.53 v 4.99 q 4.61,-5.89 11.52,-5.89 3.91,0 6.37,1.82 2.46,1.83 3.49,5.16 2.3,-3.33 5.28,-5.12 2.97,-1.8 7.01,-1.8 5.31,0 7.96,3.33 2.66,3.33 2.66,9.15 z m 23.94,11.3999998 q -9.09,0 -14.21,-4.77 -5.12,-4.7699998 -5.12,-13.9199998 0,-9.15 5.12,-13.92 5.12,-4.77 14.21,-4.77 9.21,0 14.27,4.83 5.05,4.83 5.05,13.86 0,9.15 -5.12,13.9199998 -5.12,4.77 -14.2,4.77 z m 0,-11.3999998 q 1.85,0 2.78,-0.99 0.93,-0.99 0.93,-3.1 v -6.4 q 0,-2.11 -0.93,-3.11 -0.93,-0.99 -2.78,-0.99 -1.86,0 -2.79,0.99 -0.93,1 -0.93,3.11 v 6.4 q 0,2.11 0.93,3.1 0.93,0.99 2.79,0.99 z m 61.05,0 h 2.82 v 10.4999998 h -20.23 V -15.544504 h 2.69 v -10.49 q 0,-2.11 -0.89,-3.11 -0.9,-0.99 -2.69,-0.99 -3.84,0 -3.84,4.1 v 10.49 h 2.69 v 10.4999998 h -20.23 V -15.544504 h 2.82 v -14.59 h -2.82 v -10.49 h 17.54 v 4.99 q 4.61,-5.89 11.52,-5.89 5.31,0 7.97,3.33 2.65,3.33 2.65,9.15 z"
         fill="url(#linearGradient4)"
         id="path3"
         style="fill:url(#linearGradient4-4)" />
    </g>
  </g>
</svg>
