<svg width="299.43" height="81.093" preserveAspectRatio="xMidYMid" version="1.1" viewBox="61.959 5.6 299.43 81.093" xmlns="http://www.w3.org/2000/svg" xmlns:xlink="http://www.w3.org/1999/xlink">
 <defs>
  <linearGradient id="linearGradient4-4-0" x1="3.2362" x2="256.31" y1="-17.608" y2="-17.781" gradientTransform="translate(46.306 77.81)" gradientUnits="userSpaceOnUse">
   <stop stop-color="#5a1a80" offset="0"/>
   <stop stop-color="#e10057" offset=".25"/>
   <stop stop-color="#ffb200" offset=".5"/>
   <stop stop-color="#e10057" offset=".74576"/>
   <stop stop-color="#5a1a80" offset="1"/>
  </linearGradient>
  <filter id="editing-jagged-46-1" x="0" y="0" width="1" height="1">
   <feTurbulence baseFrequency="0" result="turb" seed="1"/>
   <feDisplacementMap in="SourceGraphic" in2="turb"/>
  </filter>
 </defs>
 <style>text {
  font-size: 64px;
  font-family: Arial Black;
  dominant-baseline: central;
  text-anchor: middle;
}</style>
 <g transform="matrix(.98598 0 0 .98598 32.673 42.263)">
  <rect x="29.703" y="-37.185" width="303.69" height="82.246" ry="10.08" fill="#1c2224" stroke-width="1.0142"/>
  <path transform="matrix(1 0 0 .9875 4.3272 -55.66)" d="m66.596 78.71q-9.15 0-14.27-4.77t-5.12-13.92 5.12-13.92 14.2-4.77q4.42 0 8.45 1.22 4.03 1.21 6.27 2.75v12.67h-11v-1.15q0-2.11-0.9-3.11-0.9-0.99-2.82-0.99-3.71 0-3.71 4.1v5.5q0 4.99 5.7 4.99 5.31 0 12.35-1.15v10.05q-2.18 0.96-6.11 1.73-3.94 0.77-8.16 0.77zm44.16-37.38q1.28 0 2.43 0.26 1.15 0.25 1.92 0.64v12.22q-2.62-1.09-5.63-1.09-4.03 0-6.21 2.11-2.18 2.12-2.18 6.28v5.56h5.76v10.5h-23.29v-10.5h2.81v-14.59h-2.81v-10.49h17.53v4.67q1.8-2.69 4.1-4.13t5.57-1.44zm27.13 0.9h17.8v10.49h-2.44l-8.38 22.21q-3.14 8.38-7.17 12.58-4.03 4.19-10.62 4.19-2.69 0-5.44-0.55-2.75-0.54-4.99-1.5v-11.58h8.83v0.64q0 1.6 1.66 1.6 1.47 0 2.24-1.41l-10.11-26.18h-2.43v-10.49h19.01v10.49h-2.18l3.33 9.99 3.07-9.99h-2.18zm81.54 25.08h2.82v10.5h-20.23v-10.5h2.69v-10.49q0-2.11-0.9-3.11-0.89-0.99-2.68-0.99-3.84 0-3.84 4.1v10.49h2.68v10.5h-20.09v-10.5h2.69v-10.49q0-2.11-0.9-3.11-0.9-0.99-2.69-0.99-3.84 0-3.84 4.1v10.49h2.69v10.5h-20.22v-10.5h2.81v-14.59h-2.81v-10.49h17.53v4.99q4.61-5.89 11.52-5.89 3.91 0 6.37 1.82 2.46 1.83 3.49 5.16 2.3-3.33 5.28-5.12 2.97-1.8 7.01-1.8 5.31 0 7.96 3.33 2.66 3.33 2.66 9.15zm23.94 11.4q-9.09 0-14.21-4.77t-5.12-13.92 5.12-13.92 14.21-4.77q9.21 0 14.27 4.83 5.05 4.83 5.05 13.86 0 9.15-5.12 13.92t-14.2 4.77zm0-11.4q1.85 0 2.78-0.99t0.93-3.1v-6.4q0-2.11-0.93-3.11-0.93-0.99-2.78-0.99-1.86 0-2.79 0.99-0.93 1-0.93 3.11v6.4q0 2.11 0.93 3.1t2.79 0.99zm61.05 0h2.82v10.5h-20.23v-10.5h2.69v-10.49q0-2.11-0.89-3.11-0.9-0.99-2.69-0.99-3.84 0-3.84 4.1v10.49h2.69v10.5h-20.23v-10.5h2.82v-14.59h-2.82v-10.49h17.54v4.99q4.61-5.89 11.52-5.89 5.31 0 7.97 3.33 2.65 3.33 2.65 9.15z" fill="url(#linearGradient4-4-0)" filter="url(#editing-jagged-46-1)"/>
 </g>
</svg>
