<svg width="100" height="120" version="1.1" viewBox="0 0 7.125 8.5497" xml:space="preserve" xmlns="http://www.w3.org/2000/svg">
<g transform="matrix(.94876 0 0 .95602 3.814e-5 -2.4442e-5)"><g stroke-width=".15645"><path d="m7.5026 1.2515c-0.11436-0.69808-1.7482-1.2516-3.7478-1.2516s-3.6334 0.55352-3.7478 1.2516h-0.0070402v5.7886h0.0070402c0.11436 0.69792 1.7483 1.2516 3.7478 1.2516s3.6334-0.55368 3.7478-1.2516h0.00704v-5.7886z" fill="#545e73"/><path d="m3.52e-5 5.0063v0.078225c0-0.026284 0.0028161-0.052254 0.0070402-0.078225z" fill="#38454f"/><path d="m7.5026 5.0063c0.00422 0.025971 0.00704 0.051941 0.00704 0.078225v-0.078225z" fill="#38454f"/><path d="m3.52e-5 3.1289v0.078225c0-0.026284 0.0028161-0.052254 0.0070402-0.078225z" fill="#556080"/><path d="m7.5026 3.1289c0.00422 0.025971 0.00704 0.051941 0.00704 0.078225v-0.078225z" fill="#556080"/><ellipse cx="3.7548" cy="1.3298" rx="3.7548" ry="1.3298" fill="#00aad4"/><path d="m3.7548 6.4144c-2.0737 0-3.7548-0.59545-3.7548-1.3298v1.9556h0.0070402c0.11436 0.69792 1.7483 1.2516 3.7478 1.2516s3.6334-0.55368 3.7478-1.2516h0.00704v-1.9556c0 0.73438-1.6811 1.3298-3.7548 1.3298z" fill="#045"/><path d="m3.7548 4.537c-2.0737 0-3.7548-0.59545-3.7548-1.3298v1.9556h0.0070402c0.11436 0.69792 1.7483 1.2516 3.7478 1.2516s3.6334-0.55368 3.7478-1.2516h0.00704v-1.9556c0 0.73438-1.6811 1.3298-3.7548 1.3298z" fill="#006680"/><path d="m3.7548 2.6596c-2.0737 0-3.7548-0.59545-3.7548-1.3298v1.9556h0.0070402c0.11436 0.69792 1.7483 1.2516 3.7478 1.2516s3.6334-0.55368 3.7478-1.2516h0.00704v-1.9556c0 0.73438-1.6811 1.3298-3.7548 1.3298z" fill="#08a"/><path d="m3.52e-5 1.2515v0.078225c0-0.026284 0.0028161-0.052254 0.0070402-0.078225z" fill="#8697cb"/><path d="m7.5026 1.2515c0.00422 0.025971 0.00704 0.051941 0.00704 0.078225v-0.078225z" fill="#8697cb"/></g><path d="m6.6109 4.7119h0.64189l-1.2494 2.6204q0.046706 0.42065 0.046706 0.73534 0 0.87555-0.32717 0.87555-0.23679 0-0.23679-0.36769 0-0.47982 0.34896-1.2027-0.068525-0.44869-0.19317-1.0812-0.12152-0.63252-0.25238-0.90672-0.12775-0.2742-0.36769-0.2742-0.3926 0-0.42065 0.58579h-0.11217q0-1.0282 0.61068-1.0282 0.35209 0 0.52345 0.41752 0.17138 0.41439 0.35209 1.8073z" fill="#ff7f2a" filter="url(#editing-jagged-67)" stroke-width=".016817"/></g></svg>
