<svg width="73.036" height="46.943" preserveAspectRatio="xMidYMid" version="1.1" viewBox="61.959 5.6 73.036 46.943" xmlns="http://www.w3.org/2000/svg">
 <path d="m105.16 9.3395h6.0383l-11.754 24.651q0.43938 3.9572 0.43938 6.9176 0 8.2366-3.0778 8.2366-2.2276 0-2.2276-3.4589 0-4.5141 3.2828-11.314-0.64465-4.2209-1.8172-10.171-1.1432-5.9503-2.3743-8.5298-1.2018-2.5794-3.4589-2.5794-3.6933 0-3.9572 5.5107h-1.0552q0-9.6729 5.7452-9.6729 3.3122 0 4.9244 3.9278 1.6122 3.8985 3.3124 17.002z" fill="#d4aa00" stroke-width=".1582"/>
 <path d="m82.654 20.6h-8.2701c-0.23711 0-0.42489 0.18968-0.42489 0.42489v19.15c0 0.2352 0.18968 0.42488 0.42489 0.42488h8.2682c5.7189 0 9.5656-4.0193 9.5656-10.002 0-5.9807-3.8448-9.9981-9.5637-9.9981zm-0.24469 15.326c-0.05313 0-0.10242-0.01333-0.14985-0.0304-0.01141 0.0018-0.02091 0.0055-0.03223 0.0055-0.01515 0.0018-0.02657 0.0073-0.04172 0.0073h-2.7883c-0.22761 0-0.40971-0.18399-0.40971-0.40972v-9.8008c0-0.22572 0.1821-0.40971 0.40971-0.40971h2.7883c0.01515 0 0.02657 0.0055 0.04172 0.0073 0.0095 0 0.02091 0.0037 0.03223 0.0055 0.04747-0.01707 0.09674-0.03031 0.14985-0.03031 0.08152 0 0.16312 0.0073 0.24469 0.01141 0.14225 0.0055 0.28452 0.01707 0.42488 0.03414 2.4867 0.30918 4.1142 2.3501 4.1142 5.2807s-1.6294 4.9716-4.1142 5.2807c-0.14036 0.01707-0.28263 0.02848-0.42488 0.03414-0.08162 0.0055-0.16313 0.01333-0.24469 0.01333z" fill="#6f7c91" stroke-width=".18968"/>
 <g transform="matrix(.84182 0 0 .84182 105.19 20.955)" fill="#6f7c91">
  <g fill="#6f7c91">
   <path d="m4.523 23.758v-23.758h14.712v4.021h-9.916v5.625h9.916v4.016h-9.916v10.096z" fill="#6f7c91"/>
  </g>
 </g>
</svg>
