<svg width="99.999" height="146.73" version="1.1" viewBox="0 0 7.1249 10.454" xml:space="preserve" xmlns="http://www.w3.org/2000/svg">
<g transform="translate(0 -3.3316e-5)"><g stroke-width=".149"><path d="m7.1182 1.1964c-0.1085-0.66738-1.6586-1.1966-3.5558-1.1966s-3.4472 0.52918-3.5558 1.1966h-0.0066795v5.534h0.0066795c0.1085 0.66723 1.6587 1.1966 3.5558 1.1966s3.4472-0.52933 3.5558-1.1966h0.00668v-5.534z" fill="#545e73"/><path d="m7.1536e-5 4.7861v0.074785c0-0.025128 0.0026718-0.049956 0.0066795-0.074785z" fill="#38454f"/><path d="m7.1182 4.7861c4e-3 0.024829 0.00668 0.049657 0.00668 0.074785v-0.074785z" fill="#38454f"/><path d="m7.1536e-5 2.9912v0.074785c0-0.025128 0.0026718-0.049956 0.0066795-0.074785z" fill="#556080"/><path d="m7.1182 2.9912c4e-3 0.024829 0.00668 0.049657 0.00668 0.074785v-0.074785z" fill="#556080"/><ellipse cx="3.5624" cy="1.2713" rx="3.5624" ry="1.2713" fill="#06f"/><path d="m3.5624 6.1322c-1.9674 0-3.5624-0.56926-3.5624-1.2713v1.8696h0.0066795c0.1085 0.66723 1.6587 1.1966 3.5558 1.1966s3.4472-0.52933 3.5558-1.1966h0.00668v-1.8696c0 0.70208-1.595 1.2713-3.5624 1.2713z" fill="#003380"/><path d="m3.5624 4.3374c-1.9674 0-3.5624-0.56926-3.5624-1.2713v1.8696h0.0066795c0.1085 0.66723 1.6587 1.1966 3.5558 1.1966s3.4472-0.52933 3.5558-1.1966h0.00668v-1.8696c0 0.70208-1.595 1.2713-3.5624 1.2713z" fill="#04a"/><path d="m3.5624 2.5426c-1.9674 0-3.5624-0.56926-3.5624-1.2713v1.8696h0.0066795c0.1085 0.66723 1.6587 1.1966 3.5558 1.1966s3.4472-0.52933 3.5558-1.1966h0.00668v-1.8696c0 0.70208-1.595 1.2713-3.5624 1.2713z" fill="#0055d4"/><path d="m7.1536e-5 1.1964v0.074785c0-0.025128 0.0026718-0.049956 0.0066795-0.074785z" fill="#8697cb"/><path d="m7.1182 1.1964c4e-3 0.024829 0.00668 0.049657 0.00668 0.074785v-0.074785z" fill="#8697cb"/><path d="m3.5624 7.9206c-1.9674 0-3.5624-0.56926-3.5624-1.2713v1.8696h0.0066795c0.1085 0.66723 1.6587 1.1966 3.5558 1.1966s3.4472-0.52933 3.5558-1.1966h0.00668v-1.8696c0 0.70208-1.595 1.2713-3.5624 1.2713z" fill="#025"/></g><path d="m6.1133 6.4091h0.609l-1.1854 2.5052q0.044313 0.40215 0.044313 0.703 0 0.83704-0.31041 0.83704-0.22466 0-0.22466-0.35152 0-0.45872 0.33108-1.1498-0.065014-0.42896-0.18327-1.0336-0.11529-0.6047-0.23945-0.86684-0.1212-0.26214-0.34885-0.26214-0.37248 0-0.3991 0.56003h-0.10642q0-0.98298 0.57939-0.98298 0.33405 0 0.49663 0.39916 0.1626 0.39617 0.33405 1.7278z" fill="#ff7f2a" filter="url(#editing-jagged-67)" stroke-width=".016016"/></g></svg>
