<svg width="56.438mm" height="9.2753mm" version="1.1" viewBox="0 0 56.438 9.2753" xmlns="http://www.w3.org/2000/svg">
 <defs>
  <filter id="editing-jagged" x="0" y="0" width="1" height="1">
   <feTurbulence baseFrequency="0" result="turb" seed="1"/>
   <feDisplacementMap in="SourceGraphic" in2="turb"/>
  </filter>
  <filter id="editing-jagged-6-2" x="0" y="0" width="1" height="1">
   <feTurbulence baseFrequency="0" result="turb" seed="1"/>
   <feDisplacementMap in="SourceGraphic" in2="turb"/>
  </filter>
 </defs>
 <g transform="translate(18.785 -1.8521)">
  <rect x="-18.785" y="1.867" width="24.221" height="9.2603" fill="#333" stroke-width=".24521"/>
  <g transform="matrix(.047244 0 0 .047244 -18.486 2.9539)" fill="#fff" filter="url(#editing-jagged-6-2)">
   <g transform="translate(57.545 97.405)" fill="#fff">
    <path d="m30.78 0h-1.9l-16.72-32.84v32.84h-6.41v-44.81h7l17.06 33.75 17.1-33.75h6.97v44.81h-6.38v-32.84zm48.06-44.81h6.41l17.28 44.81h-6.4l-3.97-10.31h-20.22l-3.97 10.31h-6.41zm3.22 8.34-7.68 19.75h15.31zm34.57 30.06h16.37q4.47 0 6.88-2.4 2.4-2.41 2.4-6.88v-13.44q0-2.18-0.62-3.9-0.63-1.72-1.83-2.92-1.2-1.21-2.92-1.83-1.72-0.63-3.91-0.63h-16.37zm16.37 6.41h-22.78v-44.81h22.78q3.59 0 6.48 1.11 2.9 1.11 4.94 3.15 2.05 2.05 3.16 4.96 1.11 2.9 1.11 6.46v13.44q0 3.56-1.11 6.47t-3.16 4.95q-2.04 2.05-4.94 3.16-2.89 1.11-6.48 1.11zm25.94 0v-44.81h32.65v6.4h-26.25v12.82h22.41v6.4h-22.41v12.78h26.25v6.41zm77.44 0h-7.04l-12.81-44.81h6.41l9.94 35.65 9.9-35.65h6.41l9.9 35.65 9.94-35.65h6.41l-12.81 44.81h-7.04l-9.59-33.59zm46.71-44.81h6.41v44.81h-6.41zm14.07 6.4v-6.4h35.84v6.4h-14.72v38.41h-6.4v-38.41zm75.59-6.4h6.41v44.81h-6.41v-19.19h-25.66v19.19h-6.4v-44.81h6.4v19.22h25.66z" fill="#fff"/>
   </g>
  </g>
  <rect x="5.3341" y="1.8521" width="32.318" height="9.2603" stroke-width=".3044"/>
  <g transform="matrix(.26458 0 0 .26458 -21.168 1.8521)">
   <path d="m132.74 20.116-2.6454-9.8837c0-0.02907-0.0291-0.05814-0.0872-0.08721l-9.9128-2.6453c-0.0291 0-0.0872 0-0.11628 0.02907l-7.2674 7.2384c-0.0291 0.02907-0.0291 0.05814-0.0291 0.11628l2.6454 9.8837c0 0.02907 0.0291 0.05814 0.0872 0.08721l9.9128 2.6453c0.0291 0 0.0872 0 0.11628-0.02907l7.2674-7.2384c0.0291-0.05814 0.0581-0.08721 0.0291-0.11628zm-9.7093-7.7616-2.6163 9.7093c0 0.02907-0.0291 0.02907-0.0581 0l-7.093-7.093c-0.0291-0.02907 0-0.02907 0-0.05814l9.7384-2.6163c0 0.02907 0.0291 0.02907 0.0291 0.05814z" fill="#fff" stroke-width=".2907"/>
   <text x="174.72008" y="21.5" fill="#ffffff" font-family="Montserrat, sans-serif" font-size="12px" font-weight="900" letter-spacing="2" text-anchor="middle">CRYSTAL</text>
  </g>
 </g>
</svg>
