<svg width="58.375mm" height="9.2754mm" version="1.1" viewBox="0 0 58.375 9.2754" xmlns="http://www.w3.org/2000/svg">
 <defs>
  <filter id="editing-jagged" x="0" y="0" width="1" height="1">
   <feTurbulence baseFrequency="0" result="turb" seed="1"/>
   <feDisplacementMap in="SourceGraphic" in2="turb"/>
  </filter>
 </defs>
 <g transform="translate(-17.992 -116.68)">
  <g transform="matrix(.26458 0 0 .26458 15.372 116.65)">
   <rect x="9.9007" y=".15652" width="98.481" height="35" fill="#d78700" stroke-width=".96126"/>
   <rect x="108.38" y=".1" width="122.15" height="35" stroke-width="1.1505"/>
   <g transform="matrix(.18169 0 0 .18169 13.718 4.0294)" filter="url(#editing-jagged)">
    <g transform="translate(42.48,97.015)">
     <path d="m56.58 0h-14.02v-15.87q0-2.95 0.22-6.05 0.23-3.1 0.48-5.22 0.26-2.11 0.32-2.68h-0.25l-8.13 29.82h-11.07l-8.19-29.76h-0.26q0.06 0.58 0.35 2.66t0.55 5.18q0.25 3.1 0.25 6.05v15.87h-12.99v-44.03h19.97l6.65 25.41h0.26l6.59-25.41h19.27zm53.05 0h-14.97l-1.86-6.21h-15.42l-1.86 6.21h-14.46l16.06-44.03h16.45zm-24.64-31.74-4.67 15.68h9.54l-4.61-15.68zm49.03-12.29q23.1 0 23.1 22.01 0 22.02-23.1 22.02h-19.08v-44.03zm-4.93 10.56v22.91h4.67q8.9 0 8.9-9.54v-3.84q0-9.53-8.9-9.53zm35.65 33.47v-44.03h38.08v10.56h-23.94v6.08h20.48v10.11h-20.48v6.72h24.38v10.56zm116.16 0h-15.56l-5.69-26.82h-0.26l-5.69 26.82h-15.56l-10.3-44.03h14.72l5.06 24.96h0.25l4.99-24.96h13.96l5.31 24.96h0.25l4.74-24.96h14.08zm30.14 0h-14.14v-44.03h14.14zm49.86-32.77h-14.4v32.77h-14.15v-32.77h-14.46v-11.26h43.01zm50.3 32.77h-14.14v-16.7h-15.56v16.7h-14.14v-44.03h14.14v16.06h15.56v-16.06h14.14z"/>
    </g>
   </g>
   <g transform="translate(8.2085 .1)">
    <path d="m132.74 20.116-2.6454-9.8837c0-0.02907-0.0291-0.05814-0.0872-0.08721l-9.9128-2.6453c-0.0291 0-0.0872 0-0.11628 0.02907l-7.2674 7.2384c-0.0291 0.02907-0.0291 0.05814-0.0291 0.11628l2.6454 9.8837c0 0.02907 0.0291 0.05814 0.0872 0.08721l9.9128 2.6453c0.0291 0 0.0872 0 0.11628-0.02907l7.2674-7.2384c0.0291-0.05814 0.0581-0.08721 0.0291-0.11628zm-9.7093-7.7616-2.6163 9.7093c0 0.02907-0.0291 0.02907-0.0581 0l-7.093-7.093c-0.0291-0.02907 0-0.02907 0-0.05814l9.7384-2.6163c0 0.02907 0.0291 0.02907 0.0291 0.05814z" fill="#fff" stroke-width=".2907"/>
    <text x="174.72008" y="21.5" fill="#ffffff" font-family="Montserrat, sans-serif" font-size="12px" font-weight="900" letter-spacing="2" text-anchor="middle">CRYSTAL</text>
   </g>
  </g>
 </g>
</svg>
