<svg width="53.092mm" height="9.375mm" version="1.1" viewBox="0 0 53.092 9.375" xmlns="http://www.w3.org/2000/svg">
 <defs>
  <filter id="editing-jagged-6-2" x="0" y="0" width="1" height="1">
   <feTurbulence baseFrequency="0" result="turb" seed="1"/>
   <feDisplacementMap in="SourceGraphic" in2="turb"/>
  </filter>
 </defs>
 <rect x="1.5259e-7" y=".01506" width="24.221" height="9.3599" fill="#1c2023" stroke-width=".24653"/>
 <g transform="matrix(.047244 0 0 .047752 3.0177 5.765)" fill="#fff" filter="url(#editing-jagged-6-2)">
  <path d="m30.78 0h-1.9l-16.72-32.84v32.84h-6.41v-44.81h7l17.06 33.75 17.1-33.75h6.97v44.81h-6.38v-32.84zm48.06-44.81h6.41l17.28 44.81h-6.4l-3.97-10.31h-20.22l-3.97 10.31h-6.41zm3.22 8.34-7.68 19.75h15.31zm34.57 30.06h16.37q4.47 0 6.88-2.4 2.4-2.41 2.4-6.88v-13.44q0-2.18-0.62-3.9-0.63-1.72-1.83-2.92-1.2-1.21-2.92-1.83-1.72-0.63-3.91-0.63h-16.37zm16.37 6.41h-22.78v-44.81h22.78q3.59 0 6.48 1.11 2.9 1.11 4.94 3.15 2.05 2.05 3.16 4.96 1.11 2.9 1.11 6.46v13.44q0 3.56-1.11 6.47t-3.16 4.95q-2.04 2.05-4.94 3.16-2.89 1.11-6.48 1.11zm25.94 0v-44.81h32.65v6.4h-26.25v12.82h22.41v6.4h-22.41v12.78h26.25v6.41zm77.44 0h-7.04l-12.81-44.81h6.41l9.94 35.65 9.9-35.65h6.41l9.9 35.65 9.94-35.65h6.41l-12.81 44.81h-7.04l-9.59-33.59zm46.71-44.81h6.41v44.81h-6.41zm14.07 6.4v-6.4h35.84v6.4h-14.72v38.41h-6.4v-38.41zm75.59-6.4h6.41v44.81h-6.41v-19.19h-25.66v19.19h-6.4v-44.81h6.4v19.22h25.66z" fill="#fff"/>
 </g>
 <rect x="24.119" width="28.973" height="9.36" stroke-width=".28976"/>
 <path d="m31.855 5.2641-0.58433-2.2067c0-0.00648-0.0064-0.01298-0.01926-0.01947l-2.1896-0.5906c-0.0064 0-0.01926 0-0.02568 0.00648l-1.6053 1.6161c-0.0064 0.00648-0.0064 0.01298-0.0064 0.025961l0.58433 2.2067c0 0.00648 0.0064 0.012981 0.01926 0.01947l2.1896 0.5906c0.0064 0 0.01926 0 0.02568-0.00648l1.6053-1.6161c0.0064-0.012981 0.01283-0.01947 0.0064-0.025961zm-2.1447-1.7329-0.57791 2.1677c0 0.00648-0.0064 0.00648-0.01283 0l-1.5668-1.5836c-0.0064-0.00648 0-0.00648 0-0.01298l2.1511-0.58413c0 0.00648 0.0064 0.00648 0.0064 0.01298z" fill="#fff" stroke-width=".064556"/>
 <path d="m35.753 5.3913 0.04848 0.28095c-0.22546 0.053799-0.50725 0.077717-0.8535 0.077717-0.41868 0-0.70856-0.077717-0.87765-0.23911-0.16908-0.1614-0.2576-0.43638-0.2576-0.82492 0-0.38855 0.08058-0.6695 0.25766-0.82492 0.16908-0.1614 0.45894-0.23911 0.87765-0.23911 0.30598 0 0.57168 0.023901 0.79713 0.065754l-0.04848 0.28693c-0.23347-0.01197-0.48312-0.017915-0.74881-0.017915-0.23353 0-0.38649 0.053799-0.47506 0.15542-0.08058 0.1076-0.12884 0.29888-0.12884 0.57983s0.04031 0.47822 0.12884 0.57984c0.08863 0.1076 0.24154 0.15542 0.47506 0.15542 0.33817-0.00598 0.61194-0.017915 0.80518-0.035872zm2.3109-0.3228 0.2496 0.64559h-0.53947l-0.22544-0.63961c-0.04848-0.12553-0.16102-0.18531-0.32205-0.18531h-0.49919v0.82492h-0.49919v-2.0623c0.24153-0.017915 0.57972-0.023901 1.0145-0.023901 0.3543 0 0.60388 0.041848 0.74882 0.13151 0.14496 0.089666 0.2174 0.24509 0.2174 0.47224 0 0.1614-0.04031 0.28095-0.12077 0.36464-0.08058 0.083685-0.2174 0.13749-0.40261 0.15542v0.017915c0.08058 0.011971 0.15302 0.047818 0.22546 0.095647 0.08059 0.041849 0.12884 0.11358 0.15296 0.20324zm-0.45894-0.5619c0.06444-0.047816 0.09658-0.13151 0.09658-0.25704s-0.03214-0.20922-0.09658-0.25704c-0.06445-0.041849-0.18521-0.065754-0.37037-0.065754h-0.4992v0.65157h0.4992c0.18521 0 0.30598-0.023901 0.37037-0.071734zm7.7459-0.85481h-2.2143v0.31682h0.84545v1.7455h0.50726v-1.7455h0.86155zm1.5621 0.095648 0.83738 1.9607h-0.52338l-0.22546-0.58581h-1.0306l-0.22546 0.58581h-0.51532l0.82934-1.9607c0.02396-0.065754 0.08847-0.10162 0.18521-0.10162h0.49113c0.08862 0.00598 0.15302 0.035871 0.17715 0.10162zm-0.03213 1.076-0.28179-0.71134c-0.04031-0.1076-0.05638-0.16737-0.06445-0.17335h-0.10463l-0.06443 0.17335-0.27378 0.71134zm2.8906 0.57984h-0.96641c-0.08847 0-0.15296-0.01197-0.18521-0.03587-0.03214-0.023901-0.05638-0.071735-0.05638-0.13151v-1.5841h-0.50726v1.6379c0 0.28693 0.20934 0.43039 0.62805 0.43039 0.47506 0 0.83738-0.01197 1.1031-0.023901zm-10.049-0.95045c-0.01635 0.029885-0.05638 0.11358-0.1127 0.25106h-0.03217c-0.05632-0.13151-0.09656-0.2152-0.11269-0.25106l-0.50727-0.80101h-0.53139l0.90985 1.3629v0.70537h0.50726v-0.70537l0.90985-1.3629h-0.52338zm2.5766 0.11955-0.53144-0.12553c-0.12077-0.029887-0.20128-0.059778-0.24154-0.095647-0.04848-0.035871-0.06444-0.095647-0.06444-0.17933 0-0.10162 0.03214-0.16737 0.09658-0.19726 0.06444-0.023901 0.18521-0.041849 0.37036-0.041849 0.24154 0 0.52338 0.00598 0.82934 0.011971l0.03214-0.26302c-0.24148-0.047814-0.53134-0.071727-0.86954-0.071727-0.3543 0-0.60389 0.035871-0.74078 0.1076-0.14495 0.071735-0.20934 0.22117-0.20934 0.44833 0 0.15542 0.04032 0.28693 0.12884 0.38257 0.08852 0.095646 0.22546 0.16737 0.42675 0.2152l0.56361 0.13151c0.1127 0.023901 0.19322 0.053799 0.23347 0.089666 0.04031 0.035871 0.06444 0.095646 0.06444 0.18531 0 0.10162-0.03214 0.17335-0.08863 0.20324-0.06444 0.029886-0.18521 0.047818-0.37036 0.047818-0.12077 0-0.41062-0.00598-0.87764-0.01197l-0.03213 0.27497c0.29792 0.041848 0.59584 0.065754 0.90181 0.065754 0.37037 0 0.62804-0.041849 0.76492-0.11955 0.14495-0.077717 0.2174-0.23313 0.2174-0.46028 0-0.15542-0.04031-0.28693-0.12884-0.38257-0.11269-0.095646-0.25765-0.16737-0.47505-0.21519z" fill="#fff" stroke-width=".069377"/>
</svg>
